<svg width="86" height="86" viewBox="0 0 86 86" fill="none" xmlns="http://www.w3.org/2000/svg">
<rect x="0.725586" y="0.669922" width="85" height="85" rx="42.5" fill="#152B54"/>
<g clip-path="url(#clip0_342_4965)">
<path d="M42.1006 33.0449C42.1475 32.3418 42.5225 31.9668 43.2256 31.9199C43.9287 31.9668 44.3037 32.3418 44.3506 33.0449V42.5371L50.6084 46.7559C51.124 47.1777 51.2178 47.6934 50.8896 48.3027C50.4678 48.8184 49.9521 48.9121 49.3428 48.584L42.5928 44.084C42.2646 43.8496 42.0771 43.5449 42.0303 43.1699L42.1006 33.0449ZM43.2256 25.1699C46.6006 25.2168 49.624 26.0371 52.2959 27.6309C55.0146 29.2246 57.1709 31.3809 58.7646 34.0996C60.3584 36.7715 61.1787 39.7949 61.2256 43.1699C61.1787 46.5449 60.3584 49.5684 58.7646 52.2402C57.1709 54.959 55.0146 57.1152 52.2959 58.709C49.624 60.3027 46.6006 61.123 43.2256 61.1699C39.8506 61.123 36.8271 60.3027 34.1553 58.709C31.4365 57.1152 29.2803 54.959 27.6865 52.2402C26.0928 49.5684 25.2725 46.5449 25.2256 43.1699C25.2725 39.7949 26.0928 36.7715 27.6865 34.0996C29.2803 31.3809 31.4365 29.2246 34.1553 27.6309C36.8271 26.0371 39.8506 25.2168 43.2256 25.1699ZM27.4756 43.1699C27.5225 46.123 28.249 48.7715 29.6553 51.1152C31.0146 53.5059 32.8896 55.3809 35.2803 56.7402C37.624 58.1465 40.2725 58.873 43.2256 58.9199C46.1787 58.873 48.8271 58.1465 51.1709 56.7402C53.5615 55.3809 55.4365 53.5059 56.7959 51.1152C58.2021 48.7715 58.9287 46.123 58.9756 43.1699C58.9287 40.2168 58.2021 37.5684 56.7959 35.2246C55.4365 32.834 53.5615 30.959 51.1709 29.5996C48.8271 28.1934 46.1787 27.4668 43.2256 27.4199C40.2725 27.4668 37.624 28.1934 35.2803 29.5996C32.8896 30.959 31.0146 32.834 29.6553 35.2246C28.249 37.5684 27.5225 40.2168 27.4756 43.1699Z" fill="white"/>
</g>
<defs>
<clipPath id="clip0_342_4965">
<rect width="36" height="37" fill="white" transform="matrix(1 0 0 -1 25.2256 61.6699)"/>
</clipPath>
</defs>
</svg>
