<svg width="86" height="86" viewBox="0 0 86 86" fill="none" xmlns="http://www.w3.org/2000/svg">
<rect x="0.725586" y="0.669922" width="85" height="85" rx="42.5" fill="#152B54"/>
<g clip-path="url(#clip0_342_4958)">
<path d="M48.8506 38.6699C48.8037 40.2637 48.2646 41.5996 47.2334 42.6777C46.1553 43.709 44.8193 44.248 43.2256 44.2949C41.6318 44.248 40.2959 43.709 39.2178 42.6777C38.1865 41.5996 37.6475 40.2637 37.6006 38.6699C37.6475 37.0762 38.1865 35.7402 39.2178 34.6621C40.2959 33.6309 41.6318 33.0918 43.2256 33.0449C44.8193 33.0918 46.1553 33.6309 47.2334 34.6621C48.2646 35.7402 48.8037 37.0762 48.8506 38.6699ZM43.2256 42.0449C44.1631 41.998 44.96 41.6699 45.6162 41.0605C46.2256 40.4043 46.5537 39.6074 46.6006 38.6699C46.5537 37.7324 46.2256 36.9355 45.6162 36.2793C44.96 35.6699 44.1631 35.3418 43.2256 35.2949C42.2881 35.3418 41.4912 35.6699 40.835 36.2793C40.2256 36.9355 39.8975 37.7324 39.8506 38.6699C39.8975 39.6074 40.2256 40.4043 40.835 41.0605C41.4912 41.6699 42.2881 41.998 43.2256 42.0449ZM56.7256 38.6699C56.6318 40.7793 55.8818 43.2168 54.4756 45.9824C53.0225 48.748 51.3818 51.4199 49.5537 53.998C47.7256 56.623 46.1787 58.709 44.9131 60.2559C44.4443 60.8184 43.8818 61.0996 43.2256 61.0996C42.5693 61.0996 42.0068 60.8184 41.5381 60.2559C40.2725 58.709 38.7021 56.623 36.8271 53.998C34.999 51.4199 33.3818 48.748 31.9756 45.9824C30.5693 43.2168 29.8193 40.7793 29.7256 38.6699C29.8193 34.8262 31.1318 31.6387 33.6631 29.1074C36.1943 26.5762 39.3818 25.2637 43.2256 25.1699C47.0693 25.2637 50.2568 26.5762 52.7881 29.1074C55.3193 31.6387 56.6318 34.8262 56.7256 38.6699ZM43.2256 27.4199C40.0381 27.5137 37.3896 28.6152 35.2803 30.7246C33.1709 32.834 32.0693 35.4824 31.9756 38.6699C31.9756 39.7949 32.374 41.2715 33.1709 43.0996C33.9678 44.9746 34.9756 46.9199 36.1943 48.9355C37.4131 50.9043 38.6553 52.7324 39.9209 54.4199C41.1865 56.1543 42.2881 57.6074 43.2256 58.7793C44.1631 57.6074 45.2646 56.1543 46.5303 54.4199C47.7959 52.7324 49.0381 50.9043 50.2568 48.9355C51.4756 46.9199 52.4834 44.9746 53.2803 43.0996C54.0771 41.2715 54.4756 39.7949 54.4756 38.6699C54.3818 35.4824 53.2803 32.834 51.1709 30.7246C49.0615 28.6152 46.4131 27.5137 43.2256 27.4199Z" fill="white"/>
</g>
<defs>
<clipPath id="clip0_342_4958">
<rect width="27" height="37" fill="white" transform="matrix(1 0 0 -1 29.7256 61.6699)"/>
</clipPath>
</defs>
</svg>
