<svg width="86" height="86" viewBox="0 0 86 86" fill="none" xmlns="http://www.w3.org/2000/svg">
<rect x="0.0253906" y="0.669922" width="85" height="85" rx="42.5" fill="#152B54"/>
<g clip-path="url(#clip0_342_4975)">
<path d="M34.2184 45.3015C35.1796 44.4066 35.4448 43.346 35.014 42.1197L32.6279 36.5518C31.9651 35.2924 30.9211 34.7787 29.4959 35.0107L24.425 36.2041C23.0992 36.6019 22.3866 37.4802 22.2871 38.8391C22.3202 42.1202 22.9332 45.2191 24.1262 48.1357C25.3524 51.0854 27.1089 53.7036 29.3957 55.9904C31.7156 58.3103 34.3504 60.0834 37.3001 61.3096C40.2167 62.5026 43.3155 63.1156 46.5967 63.1487C47.3922 63.1486 48.0385 62.9 48.5356 62.4029C48.9002 62.0383 49.1488 61.5908 49.2814 61.0605L50.4748 55.9896C50.7068 54.5644 50.1766 53.537 48.884 52.9073L43.4155 50.5212C42.156 50.0573 41.0955 50.3224 40.2337 51.3168L38.5433 53.3054C35.8588 51.7478 33.7377 49.6267 32.1801 46.9422L34.2184 45.3015ZM38.3941 55.7415C38.9244 55.9403 39.3718 55.8243 39.7364 55.3934L41.9737 52.659C42.1062 52.5264 42.272 52.4933 42.4708 52.5596L47.9891 54.8959C48.1879 55.0285 48.2708 55.2108 48.2376 55.4428L47.094 60.5635C47.0277 60.7623 46.8785 60.8783 46.6465 60.9115C43.6636 60.9116 40.8299 60.3648 38.1454 59.2712C35.4608 58.1776 33.058 56.5703 30.9369 54.4492C28.849 52.3612 27.2582 49.975 26.1646 47.2904C25.0378 44.639 24.4745 41.8219 24.4746 38.839C24.4746 38.7064 24.5077 38.607 24.574 38.5407C24.6403 38.4744 24.7232 38.4247 24.8226 38.3915L29.9433 37.2479C30.1753 37.2147 30.3576 37.2976 30.4901 37.4964L32.9259 43.0147C32.9922 43.2135 32.9591 43.3793 32.8265 43.5118L30.0921 45.7491C29.6281 46.1469 29.5286 46.6109 29.7937 47.1411C31.6828 50.9525 34.5495 53.8193 38.3941 55.7415ZM38.445 25.0674C37.7821 25.2663 37.4507 25.6972 37.4507 26.36C37.6495 27.0229 38.0803 27.3543 38.7432 27.3543C41.461 26.9565 44.0793 27.1884 46.5981 28.05C49.117 28.8453 51.3541 30.2207 53.3095 32.176C55.2648 34.1314 56.6402 36.3685 57.4355 38.8874C58.2971 41.4062 58.529 44.0245 58.1312 46.7423C58.1312 47.4052 58.4626 47.836 59.1255 48.0348C59.49 48.068 59.8049 47.952 60.07 47.6868C60.2358 47.5211 60.3518 47.3056 60.4181 47.0405C60.8491 43.9582 60.5675 40.9919 59.5733 38.1416C58.6454 35.2913 57.0712 32.7559 54.8507 30.5354C52.6633 28.348 50.1445 26.7904 47.2942 25.8625C44.4771 24.9015 41.5273 24.6364 38.445 25.0674ZM38.1962 31.6795C37.5333 31.8784 37.235 32.3093 37.3012 32.9721C37.5001 33.635 37.9309 33.9333 38.5938 33.8669C40.4498 33.5354 42.2396 33.6348 43.963 34.165C45.6864 34.6952 47.211 35.6232 48.5366 36.9489C49.8623 38.2745 50.7903 39.7991 51.3205 41.5225C51.8507 43.2459 51.9501 45.0357 51.6186 46.8917C51.5522 47.5546 51.8505 47.9854 52.5134 48.1843C52.9111 48.2505 53.2425 48.1511 53.5077 47.8859C53.6734 47.7202 53.7728 47.5213 53.806 47.2893C54.2038 45.1019 54.0879 42.9641 53.4582 40.8761C52.7955 38.755 51.6687 36.899 50.0779 35.3082C48.5202 33.7505 46.6974 32.6569 44.6094 32.0273C42.5214 31.3976 40.3836 31.2817 38.1962 31.6795ZM39.0908 38.6395C38.4279 38.9047 38.1959 39.3687 38.3947 40.0316C38.6267 40.6613 39.0907 40.8933 39.7867 40.7275C41.3113 40.3298 42.637 40.6611 43.7638 41.7217C44.8575 42.8816 45.1889 44.2074 44.758 45.6988C44.5922 46.3948 44.8242 46.8588 45.4539 47.0908C45.8848 47.2565 46.2659 47.1736 46.5974 46.8422C46.7299 46.7096 46.8128 46.5605 46.846 46.3947C47.2106 45.301 47.2603 44.1907 46.9952 43.0638C46.7301 41.937 46.1833 40.9593 45.3548 40.1307C43.532 38.4405 41.444 37.9434 39.0908 38.6395Z" fill="white"/>
</g>
<defs>
<clipPath id="clip0_342_4975">
<rect width="35.9988" height="36.9958" fill="white" transform="matrix(0.707107 -0.707107 -0.707107 -0.707107 42.5254 69.1201)"/>
</clipPath>
</defs>
</svg>
