<svg width="47" height="47" viewBox="0 0 47 47" fill="none" xmlns="http://www.w3.org/2000/svg">
<mask id="mask0_342_2028" style="mask-type:alpha" maskUnits="userSpaceOnUse" x="0" y="0" width="47" height="47">
<rect x="0.539062" y="0.0849609" width="46" height="46" fill="#D9D9D9"/>
</mask>
<g mask="url(#mask0_342_2028)">
<path d="M8.20638 40.335C7.15221 40.335 6.24978 39.9597 5.49909 39.209C4.74839 38.4583 4.37305 37.5558 4.37305 36.5017V15.4183C4.37305 14.3642 4.74839 13.4617 5.49909 12.711C6.24978 11.9603 7.15221 11.585 8.20638 11.585H15.873V7.75167C15.873 6.6975 16.2484 5.79507 16.9991 5.04438C17.7498 4.29368 18.6522 3.91833 19.7064 3.91833H27.373C28.4272 3.91833 29.3296 4.29368 30.0803 5.04438C30.831 5.79507 31.2064 6.6975 31.2064 7.75167V11.585H38.873C39.9272 11.585 40.8296 11.9603 41.5803 12.711C42.331 13.4617 42.7064 14.3642 42.7064 15.4183V36.5017C42.7064 37.5558 42.331 38.4583 41.5803 39.209C40.8296 39.9597 39.9272 40.335 38.873 40.335H8.20638ZM19.7064 11.585H27.373V7.75167H19.7064V11.585ZM38.873 28.835H29.2897V32.6683H17.7897V28.835H8.20638V36.5017H38.873V28.835ZM21.623 28.835H25.4564V25.0017H21.623V28.835ZM8.20638 25.0017H17.7897V21.1683H29.2897V25.0017H38.873V15.4183H8.20638V25.0017Z" fill="#0D6EFD"/>
</g>
</svg>
