<svg width="47" height="47" viewBox="0 0 47 47" fill="none" xmlns="http://www.w3.org/2000/svg">
<mask id="mask0_342_2054" style="mask-type:alpha" maskUnits="userSpaceOnUse" x="0" y="0" width="47" height="47">
<rect x="0.0390625" y="0.0849609" width="46" height="46" fill="#D9D9D9"/>
</mask>
<g mask="url(#mask0_342_2054)">
<path d="M38.2766 40.335C34.2835 40.335 30.3384 39.4645 26.4411 37.7235C22.5439 35.9825 18.9981 33.5148 15.8036 30.3204C12.6092 27.1259 10.1415 23.5801 8.40052 19.6829C6.65955 15.7857 5.78906 11.8405 5.78906 7.84746C5.78906 7.27246 5.98073 6.79329 6.36406 6.40996C6.7474 6.02663 7.22656 5.83496 7.80156 5.83496H15.5641C16.0113 5.83496 16.4106 5.9867 16.762 6.29017C17.1134 6.59364 17.321 6.95302 17.3849 7.36829L18.6307 14.0766C18.6946 14.5877 18.6786 15.019 18.5828 15.3704C18.487 15.7218 18.3113 16.0252 18.0557 16.2808L13.4078 20.9766C14.0467 22.1586 14.8054 23.3006 15.6839 24.4027C16.5623 25.5048 17.5286 26.5669 18.5828 27.5891C19.5731 28.5794 20.6113 29.4978 21.6974 30.3443C22.7835 31.1909 23.9335 31.9655 25.1474 32.6683L29.6516 28.1641C29.9391 27.8766 30.3144 27.661 30.7776 27.5173C31.2408 27.3735 31.696 27.3336 32.1432 27.3975L38.7557 28.7391C39.203 28.8669 39.5703 29.0985 39.8578 29.4339C40.1453 29.7693 40.2891 30.1447 40.2891 30.56V38.3225C40.2891 38.8975 40.0974 39.3766 39.7141 39.76C39.3307 40.1433 38.8516 40.335 38.2766 40.335ZM11.587 17.335L14.7495 14.1725L13.9349 9.66829H9.67031C9.83003 10.978 10.0536 12.2718 10.3411 13.5495C10.6286 14.8273 11.0439 16.0891 11.587 17.335ZM28.7411 34.4891C29.987 35.0322 31.2568 35.4634 32.5505 35.7829C33.8443 36.1023 35.146 36.31 36.4557 36.4058V32.1891L31.9516 31.2787L28.7411 34.4891Z" fill="#0D6EFD"/>
</g>
</svg>
