<svg width="47" height="47" viewBox="0 0 47 47" fill="none" xmlns="http://www.w3.org/2000/svg">
<mask id="mask0_342_2066" style="mask-type:alpha" maskUnits="userSpaceOnUse" x="0" y="0" width="47" height="47">
<rect x="0.0390625" y="0.0849609" width="46" height="46" fill="#D9D9D9"/>
</mask>
<g mask="url(#mask0_342_2066)">
<path d="M23.0397 42.2518C19.6536 42.2518 16.8904 41.7167 14.7501 40.6466C12.6099 39.5764 11.5397 38.1948 11.5397 36.5018C11.5397 35.7351 11.7713 35.0244 12.2345 34.3695C12.6977 33.7146 13.3446 33.1476 14.1751 32.6685L17.1939 35.4955C16.9064 35.6233 16.5949 35.7671 16.2595 35.9268C15.9241 36.0865 15.6605 36.2782 15.4689 36.5018C15.8842 37.0129 16.8425 37.4601 18.3439 37.8435C19.8453 38.2268 21.4105 38.4185 23.0397 38.4185C24.6689 38.4185 26.2421 38.2268 27.7595 37.8435C29.2769 37.4601 30.2432 37.0129 30.6585 36.5018C30.4349 36.2462 30.1474 36.0386 29.796 35.8789C29.4446 35.7192 29.1092 35.5754 28.7897 35.4476L31.7605 32.5726C32.655 33.0837 33.3418 33.6667 33.821 34.3216C34.3001 34.9764 34.5397 35.7032 34.5397 36.5018C34.5397 38.1948 33.4696 39.5764 31.3293 40.6466C29.189 41.7167 26.4258 42.2518 23.0397 42.2518ZM23.0876 31.7101C26.2501 29.3782 28.63 27.0382 30.2272 24.6903C31.8244 22.3424 32.623 19.9865 32.623 17.6226C32.623 14.3643 31.5849 11.9046 29.5085 10.2435C27.4321 8.58235 25.2758 7.75179 23.0397 7.75179C20.8036 7.75179 18.6474 8.58235 16.571 10.2435C14.4946 11.9046 13.4564 14.3643 13.4564 17.6226C13.4564 19.7629 14.239 21.991 15.8043 24.307C17.3696 26.623 19.7974 29.0907 23.0876 31.7101ZM23.0397 36.5018C18.5355 33.1796 15.1734 29.9532 12.9533 26.8226C10.7331 23.6921 9.62305 20.6254 9.62305 17.6226C9.62305 15.3546 10.0303 13.366 10.8449 11.657C11.6595 9.94797 12.7057 8.51846 13.9835 7.36846C15.2612 6.21846 16.6987 5.35596 18.296 4.78096C19.8932 4.20596 21.4744 3.91846 23.0397 3.91846C24.605 3.91846 26.1862 4.20596 27.7835 4.78096C29.3807 5.35596 30.8182 6.21846 32.096 7.36846C33.3737 8.51846 34.4199 9.94797 35.2345 11.657C36.0491 13.366 36.4564 15.3546 36.4564 17.6226C36.4564 20.6254 35.3463 23.6921 33.1262 26.8226C30.906 29.9532 27.5439 33.1796 23.0397 36.5018ZM23.0397 21.1685C24.0939 21.1685 24.9963 20.7931 25.747 20.0424C26.4977 19.2917 26.873 18.3893 26.873 17.3351C26.873 16.281 26.4977 15.3785 25.747 14.6278C24.9963 13.8771 24.0939 13.5018 23.0397 13.5018C21.9855 13.5018 21.0831 13.8771 20.3324 14.6278C19.5817 15.3785 19.2064 16.281 19.2064 17.3351C19.2064 18.3893 19.5817 19.2917 20.3324 20.0424C21.0831 20.7931 21.9855 21.1685 23.0397 21.1685Z" fill="#0D6EFD"/>
</g>
</svg>
