<svg width="47" height="47" viewBox="0 0 47 47" fill="none" xmlns="http://www.w3.org/2000/svg">
<mask id="mask0_342_2058" style="mask-type:alpha" maskUnits="userSpaceOnUse" x="0" y="0" width="47" height="47">
<rect x="0.539062" y="0.0849609" width="46" height="46" fill="#D9D9D9"/>
</mask>
<g mask="url(#mask0_342_2058)">
<path d="M8.20638 38.4181C7.15221 38.4181 6.24978 38.0428 5.49909 37.2921C4.74839 36.5414 4.37305 35.639 4.37305 34.5848V11.5848C4.37305 10.5306 4.74839 9.6282 5.49909 8.87751C6.24978 8.12681 7.15221 7.75146 8.20638 7.75146H38.873C39.9272 7.75146 40.8296 8.12681 41.5803 8.87751C42.331 9.6282 42.7064 10.5306 42.7064 11.5848V34.5848C42.7064 35.639 42.331 36.5414 41.5803 37.2921C40.8296 38.0428 39.9272 38.4181 38.873 38.4181H8.20638ZM23.5397 25.0015L8.20638 15.4181V34.5848H38.873V15.4181L23.5397 25.0015ZM23.5397 21.1681L38.873 11.5848H8.20638L23.5397 21.1681ZM8.20638 15.4181V11.5848V34.5848V15.4181Z" fill="#0D6EFD"/>
</g>
</svg>
