<svg width="34" height="34" viewBox="0 0 34 34" fill="none" xmlns="http://www.w3.org/2000/svg">
<g clip-path="url(#clip0_342_4925)">
<path d="M32.9272 24.8525C32.9272 26.629 31.5165 28.0397 29.7922 28.0397H3.66723C1.94298 28.0397 0.532227 26.629 0.532227 24.8525V8.9685C0.532227 7.192 1.94298 5.78125 3.66723 5.78125H29.7922C31.5165 5.78125 32.9272 7.192 32.9272 8.9685V24.8525Z" fill="white"/>
<path d="M0.532227 23.1279V24.8522C0.532227 26.6287 1.94298 28.0394 3.66723 28.0394H29.7922C31.5165 28.0394 32.9272 26.6287 32.9272 24.8522V23.1279H0.532227Z" fill="#B71234"/>
<path d="M3.66699 5.78125H29.792C31.5162 5.78125 32.927 7.192 32.927 8.9685V24.8525C32.927 26.629 31.5162 28.0397 29.792 28.0397" fill="#E9F3F4"/>
<path d="M29.7924 28.0394C31.5167 28.0394 32.9274 26.6287 32.9274 24.8522V23.1279H24.0449L29.7924 28.0394Z" fill="#99002C"/>
<path d="M32.9272 24.8521C32.9272 26.6286 31.5165 28.0393 29.7922 28.0393H3.66723C1.94298 28.0393 0.532227 26.6286 0.532227 24.8521" fill="#870221"/>
<path d="M3.66699 5.78125H29.792C31.5162 5.78125 32.927 7.192 32.927 8.9685V14.7683" fill="#D9ECED"/>
<path d="M4.39849 12.051L4.81649 10.6925L3.66699 9.85655H5.07774L5.49574 8.49805L5.91374 9.85655H7.32449L6.17499 10.6925L6.59299 12.051L5.44349 11.215L4.39849 12.051Z" fill="#B71234"/>
<path d="M30.4715 21.508C30.4715 21.4557 30.4715 21.4557 30.4193 21.4557C30.367 21.4557 30.3148 21.4035 30.3148 21.4035L30.2625 21.3512L30.2103 21.299H30.158L30.0535 21.1945H29.8968C29.8968 21.1945 29.8968 21.1422 29.8445 21.1422C29.8445 21.1422 29.8445 21.09 29.7923 21.09L29.74 21.0377H29.6355V20.9855C29.6355 20.9332 29.6355 20.9332 29.5833 20.9332C29.5833 20.9332 29.531 20.881 29.531 20.9332C29.531 20.9332 29.4788 20.9332 29.4788 20.9855H29.3743C29.3743 20.9332 29.322 20.9332 29.2698 20.881H29.1653C29.113 20.881 29.113 20.8287 29.113 20.7765H28.8518V20.8287H28.7995L28.7473 20.7765H28.6428V20.672C28.6428 20.672 28.5905 20.672 28.5905 20.7242C28.5383 20.7242 28.5383 20.672 28.5383 20.6197H28.486L28.4338 20.672H28.3815V20.5675H28.3293C28.3293 20.6197 28.277 20.672 28.2248 20.6197V20.463C28.2248 20.463 28.2248 20.4107 28.1725 20.4107C28.1725 20.4107 28.1203 20.4107 28.1203 20.463C28.1203 20.463 28.1203 20.5152 28.068 20.5152H28.0158L27.9635 20.5675C27.9635 20.5675 27.9113 20.5675 27.9113 20.6197L27.859 20.5675V20.463C27.859 20.463 27.859 20.4107 27.8068 20.4107V20.3062C27.8068 20.254 27.8068 20.254 27.7545 20.2017L27.7023 20.254C27.7023 20.254 27.7023 20.3062 27.65 20.3062C27.65 20.3062 27.5978 20.3062 27.5978 20.254C27.5978 20.2017 27.5978 20.2017 27.5455 20.2017H27.4933V20.3062C27.4933 20.3585 27.4933 20.4107 27.441 20.4107C27.441 20.4107 27.3888 20.4107 27.3888 20.3585C27.3888 20.3062 27.3365 20.3062 27.3365 20.3062C27.3365 20.3062 27.2843 20.3062 27.2843 20.254V20.1495C27.2843 20.1495 27.232 20.1495 27.232 20.2017C27.232 20.2017 27.1798 20.254 27.1798 20.2017V20.1495C27.1275 20.0972 27.1275 20.0972 27.1275 20.2017C27.1275 20.254 27.0753 20.254 27.0753 20.254H27.023C27.023 20.254 26.605 20.2017 26.0825 20.2017L25.142 20.1495H25.0898L25.0375 20.0972H24.8808L24.8285 20.045L24.5673 19.8882H24.4628L24.4105 19.836H24.3583L24.306 19.8882L24.2538 19.836H24.2015L24.1493 19.7837L24.097 19.7315H23.9403L23.888 19.6792L23.8358 19.7315H23.679L23.6268 19.836H23.47V19.6792H23.5223H23.4178V19.5747H23.3655L23.3133 19.6792V19.627H23.261L23.2088 19.6792L23.1565 19.7315H23.1043V19.627H23.052L22.9998 19.6792L22.8953 19.7315V19.627H22.843V19.6792H22.7908L22.7385 19.627L22.634 19.7315L22.5295 19.7837H22.4773C22.4773 19.7837 21.2755 19.9405 20.544 19.9405C19.8648 19.9405 19.917 19.7837 19.917 19.7837V19.627H19.8648C19.708 19.627 19.6558 19.6792 19.6035 19.7315C19.6035 19.7315 19.29 19.7315 18.1928 19.6792H18.0883C18.036 19.6792 17.9838 19.5747 17.9315 19.627C17.8793 19.6792 17.827 19.627 17.827 19.5747C17.7748 19.5747 17.7225 19.6792 17.6703 19.627C17.618 19.5747 17.5135 19.6792 17.4613 19.627C17.4613 19.627 17.409 19.5225 17.409 19.5747C17.3568 19.627 17.409 19.4702 17.3045 19.4702C17.3045 19.5225 17.2523 19.5225 17.2523 19.4702H17.2C17.1478 19.4702 17.1478 19.5225 17.1478 19.5225C17.0955 19.5747 16.991 19.4702 16.991 19.5747C16.991 19.627 16.8865 19.627 16.8343 19.627C16.8343 19.5225 16.7298 19.5747 16.6775 19.627C16.6253 19.6792 16.5208 19.627 16.4685 19.627C16.4163 19.627 16.364 19.627 16.364 19.5747C16.4163 19.5225 16.364 19.4702 16.3118 19.5225C16.2595 19.5225 16.3118 19.5747 16.2595 19.5747C16.2073 19.627 16.2595 19.4702 16.155 19.5225C16.155 19.627 15.9983 19.627 15.946 19.627C15.8938 19.627 15.8415 19.6792 15.737 19.6792H15.4235L15.0578 19.7837C14.8488 19.836 14.692 19.8882 14.692 19.8882H14.5875L12.184 20.4107L12.0795 20.3585H11.8705L11.8183 20.3062H11.766L11.7138 20.3585H11.6093L11.5048 20.4107H11.348V20.3062H11.2958L11.2435 20.3585L11.1913 20.4107H11.139L11.0868 20.3585H10.9823L10.8778 20.463H10.7733L10.721 20.5152V20.5675L10.6688 20.6197H10.512V20.5675H10.3553L10.303 20.5152H10.094V20.672H10.0418V20.7765H9.83277L9.72827 20.8287H9.57152L9.51927 20.7765L9.46702 20.7242L9.41477 20.7765L9.31027 20.881H9.25802V20.8287L9.20577 20.7765H9.15352V20.8287V20.7242L9.10127 20.7765L9.04902 20.8287V20.7242H8.99677V20.881H8.94452L8.89227 20.8287H8.84002V20.881L8.78777 20.9332L8.63102 21.09H8.52652L8.47427 20.9855L8.42202 21.09H8.21302V21.0377L8.16077 21.09V21.1422L8.05627 21.1945H7.95177L7.74277 21.299H7.63827L7.53377 21.3512H7.48152L7.37702 21.4035H7.22027L7.11577 21.4557L6.95902 21.508H6.90677C6.85452 21.5602 6.80227 21.5602 6.69777 21.6125H6.59327C6.54102 21.6125 6.54102 21.6125 6.54102 21.6647V21.717C6.59327 21.7692 6.69777 21.7692 6.80227 21.7692H6.90677C7.27252 21.7692 7.53377 21.717 7.84727 21.7692H8.89227C8.99677 21.8215 9.15352 21.8215 9.25802 21.8215H9.62377C10.094 21.7692 10.4598 21.7692 10.93 21.717H11.7138C12.1318 21.717 12.5498 21.717 12.9678 21.7692H13.0723C13.438 21.7692 13.7515 21.8215 14.1173 21.8215H14.6398C14.901 21.8737 15.1623 21.8737 15.4235 21.8737H16.8865C17.0433 21.8737 17.1478 21.8215 17.3045 21.8215C17.409 21.8215 17.5135 21.8215 17.618 21.7692C17.7225 21.7692 17.8793 21.717 17.9838 21.717C18.1928 21.717 18.4018 21.717 18.6108 21.6647C18.7675 21.6647 18.9765 21.6125 19.081 21.6125C19.3423 21.6125 19.708 21.5602 19.917 21.5602H20.4395C20.5963 21.5602 20.8053 21.508 20.962 21.508H22.5295C22.843 21.508 23.1565 21.508 23.47 21.5602C23.8358 21.5602 24.2015 21.5602 24.515 21.6125C25.142 21.6647 25.6645 21.6125 26.187 21.6647H26.605C26.9185 21.6647 27.3888 21.6125 27.5455 21.6125H27.7545C28.3293 21.6125 28.7473 21.508 29.322 21.508C29.531 21.4557 29.74 21.5602 30.0013 21.508H30.3148C30.4715 21.6125 30.4715 21.5602 30.4715 21.508Z" fill="#008542"/>
<path d="M30.4192 21.4039C30.367 21.4039 30.3147 21.3517 30.3147 21.3517L30.2625 21.2994L30.2102 21.2472H30.158L30.0535 21.1427H29.8967C29.8967 21.1427 29.8967 21.0904 29.8445 21.0904C29.8445 21.0904 29.8445 21.0382 29.7922 21.0382L29.74 20.9859H29.6355V20.9337C29.6355 20.8814 29.6355 20.8814 29.5832 20.8814C29.5832 20.8814 29.531 20.8292 29.531 20.8814C29.531 20.8814 29.4787 20.8814 29.4787 20.9337H29.3742C29.3742 20.8814 29.322 20.8814 29.2697 20.8292H29.1652C29.113 20.8292 29.113 20.7769 29.113 20.7247H28.8517V20.7769H28.7995L28.7472 20.7247H28.6427V20.6202C28.6427 20.6202 28.5905 20.6202 28.5905 20.6724C28.5382 20.6724 28.5382 20.6202 28.5382 20.5679H28.486L28.4337 20.6202H28.3815V20.5157H28.3292C28.3292 20.5679 28.277 20.6202 28.2247 20.5679V20.4112C28.2247 20.4112 28.2247 20.3589 28.1725 20.3589C28.1725 20.3589 28.1202 20.3589 28.1202 20.4112C28.1202 20.4112 28.1202 20.4634 28.068 20.4634H28.0157L27.9635 20.5157C27.9635 20.5157 27.9112 20.5157 27.9112 20.5679L27.859 20.5157V20.4112C27.859 20.4112 27.859 20.3589 27.8067 20.3589V20.2544C27.8067 20.2022 27.8067 20.2022 27.7545 20.1499L27.7022 20.2022C27.7022 20.2022 27.7022 20.2544 27.65 20.2544C27.65 20.2544 27.5977 20.2544 27.5977 20.2022C27.5977 20.1499 27.5977 20.1499 27.5455 20.1499H27.4932V20.2544C27.4932 20.3067 27.4932 20.3589 27.441 20.3589C27.441 20.3589 27.3887 20.3589 27.3887 20.3067C27.3887 20.2544 27.3365 20.2544 27.3365 20.2544C27.3365 20.2544 27.2842 20.2544 27.2842 20.2022V20.0977C27.2842 20.0977 27.232 20.0977 27.232 20.1499C27.232 20.1499 27.1797 20.2022 27.1797 20.1499V20.0977C27.1275 20.0454 27.1275 20.0454 27.1275 20.1499C27.1275 20.2022 27.0752 20.2022 27.0752 20.2022H27.023C27.023 20.2022 26.605 20.1499 26.0825 20.1499L25.142 20.0977H25.0897L25.0375 20.0454H24.8807L24.8285 19.9932L24.5672 19.8887H24.4627L24.4105 19.8364H24.3582L24.306 19.8887L24.2537 19.8364H24.2015L24.1492 19.7842L24.097 19.7319H23.9402L23.888 19.6797L23.8357 19.7319H23.679L23.6267 19.8364H23.47V19.6797H23.5222H23.4177V19.5752H23.3655L23.3132 19.6797V19.6274H23.261L23.2087 19.6797L23.1565 19.7319H23.1042V19.6274H23.052L22.9997 19.6797L22.8952 19.7319V19.6274H22.843V19.6797H22.7907L22.7385 19.6274L22.634 19.7319L22.5295 19.7842H22.4772C22.4772 19.7842 21.2755 19.9409 20.544 19.9409H20.4395L22.3205 21.5607H22.634C22.9475 21.5607 23.261 21.5607 23.5745 21.6129C23.9402 21.6129 24.306 21.6129 24.6195 21.6652C25.2465 21.7174 25.769 21.6652 26.2915 21.7174H26.7095C27.023 21.7174 27.4932 21.6652 27.65 21.6652H27.859C28.4337 21.6652 28.8517 21.5607 29.4265 21.5607C29.6355 21.5084 29.8445 21.6129 30.1057 21.5607H30.4192C30.4715 21.5607 30.5237 21.5084 30.5237 21.4039C30.4715 21.4562 30.4715 21.4562 30.4192 21.4039Z" fill="#004F22"/>
<path d="M27.2322 19.9408V19.4183C27.2322 19.366 27.2322 19.366 27.18 19.3138L27.1277 19.2615L27.0755 19.2093V19.1048C27.0755 19.1048 27.0755 19.0525 27.0232 19.0525V19.0003L26.971 18.948C26.971 18.948 26.9187 18.948 26.9187 18.8958L26.8665 18.8435C26.8665 18.8435 26.8665 18.7913 26.8142 18.7913H26.762C26.762 18.7913 26.762 18.739 26.7097 18.739V18.321C26.7097 18.321 26.7097 18.2688 26.6575 18.2165V18.0598C26.6575 18.0598 26.6575 18.0075 26.6052 18.0075V16.8058C26.6052 16.7535 26.553 16.7535 26.553 16.7013V16.44C26.553 16.3878 26.553 16.3878 26.5007 16.3355V16.1788L26.4485 16.1265C26.4485 16.1265 26.4485 16.0743 26.3962 16.0743V15.9698C26.3962 15.9175 26.344 15.8653 26.344 15.813V15.604C26.344 15.604 26.344 15.5518 26.2917 15.5518V15.4995H26.344C26.3962 15.4473 26.3962 15.4473 26.3962 15.395V15.186C26.3962 15.1338 26.344 15.1338 26.344 15.0815V14.8725L26.2917 14.8203V14.768C26.2917 14.768 26.2917 14.7158 26.2395 14.7158C26.2395 14.6635 26.2395 14.6113 26.1872 14.6113L26.135 14.559C26.135 14.559 26.135 14.5068 26.0827 14.5068H26.0305V14.4545C26.0305 14.4545 26.0305 14.4023 25.9782 14.4023C25.9782 14.35 25.926 14.35 25.8737 14.2978C25.8737 14.2978 25.8737 14.2455 25.8215 14.2455C25.8215 14.1933 25.7692 14.141 25.717 14.141L25.6647 14.0888C25.6647 14.0888 25.6647 14.0365 25.6125 14.0365H25.5602C25.5602 13.9843 25.508 13.932 25.4557 13.932V13.8798C25.4557 13.8798 25.4557 13.8275 25.4035 13.8275L25.3512 13.7753C25.299 13.7753 25.299 13.723 25.299 13.723L25.2467 13.6708H25.1945V13.6185C25.1945 13.6185 25.1945 13.5663 25.1422 13.5663C25.1422 13.5663 25.1422 13.514 25.09 13.514H25.0377C24.9855 13.4618 24.9332 13.4618 24.9332 13.3573C24.881 13.3573 24.8287 13.305 24.8287 13.305H24.7765C24.7765 13.305 24.7242 13.305 24.7242 13.2528C24.672 13.2528 24.672 13.2005 24.6197 13.2005C24.6197 13.2005 24.6197 13.1483 24.5675 13.1483C24.5152 13.1483 24.5152 13.1483 24.5152 13.096C24.463 13.0438 24.4107 13.0438 24.3585 12.9915H24.2017C24.1495 12.9915 24.1495 12.9393 24.0972 12.9393H23.7837L23.7315 12.887C23.6792 12.887 23.6792 12.8348 23.627 12.8348H23.2612L23.209 12.7825H22.6342C22.582 12.7825 22.4775 12.7303 22.4252 12.7303H20.91C20.91 12.7303 20.8055 12.7825 20.7532 12.7825H18.9245C18.8722 12.7825 18.8722 12.7825 18.82 12.7303C18.7677 12.7303 18.7155 12.678 18.6632 12.678C18.611 12.678 18.611 12.6258 18.5587 12.6258C18.5065 12.6258 18.5065 12.6258 18.5065 12.5735H18.4542C18.4542 12.5735 18.402 12.5735 18.4542 12.5213H18.402C18.3497 12.5213 18.3497 12.5213 18.3497 12.469C18.2975 12.469 18.2975 12.4168 18.2452 12.4168H18.193V12.3645H17.9317V12.3123H17.775C17.7227 12.3123 17.7227 12.3123 17.7227 12.26V12.2078C17.7227 12.2078 17.7227 12.26 17.6705 12.2078C17.6705 12.2078 17.6182 12.2078 17.6182 12.1555H17.4092C17.357 12.1555 17.357 12.1033 17.357 12.1555H17.2525C17.2525 12.1555 17.2002 12.2078 17.2002 12.1555H16.939L16.8867 12.2078H16.6255C16.5732 12.2078 16.5732 12.26 16.521 12.26H16.4165C16.4165 12.26 16.4165 12.3123 16.3642 12.26H16.312C16.2597 12.26 16.2597 12.26 16.2075 12.3123H15.9462C15.9462 12.3123 15.894 12.3123 15.894 12.3645H15.8417C15.7895 12.3645 15.7895 12.3645 15.7372 12.4168C15.7372 12.4168 15.685 12.4168 15.685 12.469C15.6327 12.5213 15.5282 12.5213 15.476 12.5735H15.3715C15.3715 12.5735 15.3715 12.6258 15.3192 12.6258L15.267 12.678H15.1625C15.1625 12.678 15.1625 12.7303 15.1102 12.7303H14.849L14.7445 12.8348H14.6922C14.64 12.8348 14.64 12.8348 14.5877 12.887H14.3265L14.2742 12.9393H14.222C14.222 12.9393 14.1697 12.9393 14.1697 12.9915L14.1175 13.0438H14.0652C14.0652 13.0438 14.013 13.0438 14.013 13.096C13.9607 13.1483 13.9085 13.1483 13.8562 13.1483C13.804 13.1483 13.804 13.2005 13.7517 13.2005H13.6472L13.5427 13.305H13.4905C13.4905 13.305 13.4382 13.305 13.4382 13.3573V13.4095H13.386L13.3337 13.4618L13.2815 13.514V13.5663H13.2292C13.2292 13.5663 13.177 13.6185 13.1247 13.5663V13.4618C13.1247 13.4618 13.0725 13.4618 13.0725 13.4095C13.0725 13.4095 13.0202 13.3573 12.968 13.3573H12.8635L12.8112 13.4095C12.759 13.4095 12.759 13.4618 12.7067 13.4618C12.7067 13.514 12.6545 13.514 12.6545 13.514L12.6022 13.5663V13.6708L12.55 13.723H12.3932C12.341 13.723 12.341 13.723 12.2887 13.6708L12.2365 13.6185C12.2365 13.6185 12.1842 13.6185 12.1842 13.5663C12.1842 13.5663 12.1842 13.514 12.132 13.514H11.9752C11.9752 13.514 11.923 13.514 11.923 13.5663C11.923 13.6185 11.8707 13.6185 11.8707 13.6708V13.8275C11.8707 13.8798 11.8707 13.8798 11.8185 13.8798V14.2455L11.7662 14.2978L11.6617 14.4023C11.6617 14.4023 11.6095 14.4023 11.6095 14.4545V14.5068C11.6095 14.559 11.6095 14.559 11.5572 14.559C11.5572 14.559 11.505 14.6113 11.505 14.6635C11.4527 14.7158 11.4527 14.8203 11.4005 14.8725L11.3482 14.9248V14.977C11.3482 14.977 11.3482 15.0293 11.296 15.0293V15.0815C11.296 15.0815 11.296 15.1338 11.2437 15.1338V15.186C11.2437 15.186 11.2437 15.2383 11.296 15.2383C11.296 15.2383 11.296 15.2905 11.3482 15.2905H11.4005V15.3428C11.4005 15.3428 11.4527 15.395 11.4005 15.395V15.6563C11.4005 15.6563 11.4005 15.7085 11.3482 15.7085C11.3482 15.7085 11.3482 15.7608 11.296 15.7608L11.2437 15.813C11.2437 15.8653 11.1915 15.8653 11.1915 15.9175L11.1392 15.9698L11.087 16.022L11.0347 16.0743L10.9302 16.1788L10.878 16.231C10.878 16.2833 10.8257 16.2833 10.8257 16.3355L10.7735 16.3878C10.7735 16.3878 10.7735 16.44 10.7212 16.44H10.669C10.669 16.44 10.6167 16.44 10.6167 16.4923C10.6167 16.4923 10.5645 16.4923 10.5645 16.5445V16.5968C10.5645 16.5968 10.5645 16.649 10.6167 16.649L10.669 16.7013L10.7212 16.7535H10.8257V16.858H10.878C10.9302 16.9103 10.9825 16.9103 11.0347 16.9103H11.3482L11.4005 16.9625C11.4005 16.9625 11.4527 16.9625 11.4527 17.0148L11.505 17.067V16.9625H11.5572C11.6095 16.9625 11.6095 16.9625 11.6617 16.9103H11.714C11.7662 16.9103 11.7662 16.858 11.8185 16.858C11.8185 16.858 11.8707 16.858 11.8707 16.8058C11.923 16.8058 11.923 16.7535 11.9752 16.7535H12.0275V16.8058C12.0275 16.858 11.9752 16.9103 11.923 16.9625L11.8707 17.0148L11.8185 17.067V17.2238C11.7662 17.2238 11.714 17.2238 11.714 17.1715C11.714 17.1193 11.6617 17.1193 11.6617 17.1193V17.2238H11.5572L11.6095 17.276V17.5373C11.6095 17.5373 11.6095 17.5895 11.6617 17.5895C11.714 17.5895 11.714 17.6418 11.7662 17.6418H12.2365L12.2887 17.5895C12.2887 17.5895 12.2887 17.5373 12.341 17.5373C12.3932 17.5373 12.3932 17.485 12.4455 17.485H12.4977C12.4977 17.4328 12.55 17.4328 12.55 17.4328H12.8112C12.8112 17.4328 12.8112 17.3805 12.8635 17.4328H13.0202V17.485C13.0202 17.485 13.0202 17.4328 13.0725 17.485H13.1247V17.5373H13.177V17.694C13.177 17.694 13.2292 17.694 13.2292 17.6418V17.5895V17.694C13.2292 17.6418 13.2292 17.6418 13.2815 17.694V17.5895H13.3337V17.3805H13.386V17.3283C13.386 17.3283 13.4382 17.3283 13.386 17.3805V17.3283C13.386 17.3283 13.4382 17.3283 13.4382 17.3805L13.386 17.3283V17.2238V17.276L13.4382 17.3283V17.2238H13.4905V17.1715C13.4905 17.1715 13.5427 17.1715 13.5427 17.2238H13.595V17.1715H13.6472C13.6995 17.1715 13.6472 17.2238 13.6995 17.1715V17.276L13.7517 17.2238V17.1715H13.804V17.1193C13.804 17.067 13.804 17.067 13.8562 17.067V17.0148H13.9607C13.9607 16.9625 13.9607 16.9625 14.013 16.9625C14.0652 16.9625 14.0652 16.9103 14.1175 16.9103H14.4832V16.858C14.4832 16.858 14.5355 16.858 14.5355 16.9103H14.7445L14.7967 16.858C14.7967 16.858 14.849 16.858 14.849 16.9103H14.9535C14.9535 16.9103 14.9535 16.858 15.0057 16.858C15.0057 16.858 15.058 16.858 15.058 16.9103C15.058 16.9103 15.1102 16.9103 15.1102 16.858H15.267L15.3192 16.9103V17.0148C15.3192 17.0148 15.3192 17.067 15.3715 17.067C15.3715 17.067 15.3715 17.1193 15.3192 17.1193V17.1715C15.3192 17.2238 15.3192 17.276 15.267 17.3283C15.267 17.3805 15.267 17.3805 15.2147 17.4328V18.0598C15.2147 18.112 15.1625 18.1643 15.1625 18.1643C15.1625 18.1643 15.1625 18.2165 15.1102 18.2165V18.2688C15.1102 18.321 15.1102 18.321 15.058 18.3733C15.058 18.4255 15.058 18.4778 15.0057 18.4778C15.0057 18.53 15.0057 18.53 14.9535 18.5823C14.9535 18.6345 14.9012 18.6345 14.9012 18.6868V18.739C14.9012 18.739 14.849 18.739 14.849 18.7913C14.849 18.7913 14.849 18.8435 14.7967 18.8435L14.7445 18.8958V18.948L14.5877 19.1048L14.5355 19.157L14.4832 19.2093L14.431 19.2615L14.3787 19.3138L14.3265 19.366C14.3265 19.366 14.3265 19.4183 14.2742 19.4183C14.2742 19.4183 14.2742 19.4705 14.222 19.4705L14.1697 19.575L14.1175 19.6273C14.1175 19.6273 14.1175 19.6795 14.0652 19.6795C14.013 19.7318 14.013 19.784 13.9607 19.784C13.9085 19.784 13.9085 19.8363 13.8562 19.8363H13.386C13.3337 19.8363 13.3337 19.8363 13.2815 19.8885C13.2292 19.8885 13.2292 19.9408 13.177 19.9408L13.1247 19.993C13.0725 19.993 13.0725 20.0453 13.0202 20.0453L12.968 20.0975L12.9157 20.1498V20.202C12.9157 20.2543 12.9157 20.2543 12.8635 20.2543H12.8112C12.8112 20.2543 12.759 20.2543 12.759 20.3065H12.7067V20.4633L12.6545 20.5155L12.6022 20.5678C12.6022 20.5678 12.6545 20.5155 12.7067 20.5155C12.7067 20.5155 12.759 20.5155 12.759 20.4633C12.8112 20.4633 12.8635 20.411 12.968 20.411V20.4633L12.8635 20.5678V20.62C12.9157 20.62 12.968 20.5678 13.0202 20.5678H13.0725C13.1247 20.5678 13.177 20.5678 13.177 20.5155C13.177 20.5155 13.2292 20.5155 13.177 20.5678L13.1247 20.62V20.7245C13.1247 20.7245 13.177 20.7245 13.177 20.6723H13.4382C13.4382 20.6723 13.4905 20.6723 13.4905 20.7245L13.5427 20.7768H13.804C13.804 20.7768 13.8562 20.7245 13.8562 20.7768H13.9085L13.9607 20.7245H14.5355L14.5877 20.6723C14.5877 20.6723 14.64 20.6723 14.64 20.62C14.64 20.62 14.6922 20.62 14.6922 20.5678C14.6922 20.5678 14.7445 20.5678 14.7445 20.5155V20.4633H14.849C14.849 20.4633 14.849 20.411 14.9012 20.4633L14.9535 20.411C15.0057 20.3588 14.9535 20.411 15.0057 20.411V20.3588H15.058C15.058 20.3588 15.058 20.3065 15.1102 20.2543H15.1625L15.2147 20.202C15.2147 20.202 15.267 20.1498 15.267 20.0975V20.1498L15.3192 20.0975H15.476L15.5282 20.0453L15.5805 19.993H15.6327L15.685 19.9408V19.8885H15.7372C15.7372 19.8885 15.7895 19.8885 15.7895 19.8363V19.784H15.8417C15.8417 19.784 15.8417 19.7318 15.894 19.7318H15.9462V19.6795C15.9985 19.6795 15.9985 19.6795 15.9985 19.6273H16.103V19.575H16.1552C16.2075 19.575 16.2075 19.575 16.2075 19.5228C16.2075 19.5228 16.2075 19.4705 16.2597 19.4705H16.3642C16.3642 19.4705 16.3642 19.4183 16.4165 19.4705V19.4183H16.4687V19.366C16.521 19.3138 16.521 19.3138 16.5732 19.3138V19.2093C16.6255 19.2093 16.6255 19.2093 16.6255 19.157V19.1048C16.6777 19.1048 16.6777 19.0525 16.6777 19.0525V18.8958H16.73V18.8435C16.73 18.8435 16.7822 18.8435 16.7822 18.7913V18.739C16.8345 18.6868 16.8867 18.6345 16.8867 18.5823C16.8867 18.5823 16.8867 18.53 16.939 18.53L16.9912 18.4778C16.9912 18.4255 16.9912 18.4255 17.0435 18.4255C17.0435 18.4255 17.0435 18.3733 17.0957 18.3733H17.148C17.148 18.321 17.148 18.321 17.2002 18.321C17.2525 18.321 17.2525 18.2688 17.3047 18.2165C17.357 18.2165 17.4092 18.2688 17.4092 18.321C17.4092 18.321 17.4615 18.321 17.4615 18.3733V18.4255H17.5137V18.4778C17.5137 18.4778 17.5137 18.53 17.566 18.53H17.6182V18.5823L17.6705 18.6345C17.6705 18.6868 17.7227 18.6868 17.7227 18.6868H17.775L17.8272 18.739L17.8795 18.7913V18.8435C17.8795 18.8435 17.9317 18.8435 17.9317 18.8958V18.948H18.0362C18.0885 18.948 18.0885 19.0003 18.1407 19.0003L18.193 19.0525L18.2452 19.1048C18.2975 19.157 18.3497 19.2093 18.3497 19.2615C18.3497 19.2615 18.402 19.3138 18.402 19.2615C18.4542 19.3138 18.4542 19.3138 18.5065 19.3138C18.5065 19.3138 18.5587 19.3138 18.5587 19.366C18.5587 19.366 18.611 19.4183 18.611 19.4705V19.6273H18.0885C18.0885 19.6273 18.0362 19.6273 18.0362 19.6795H17.984L17.9317 19.7318C17.8795 19.784 17.8795 19.8363 17.8272 19.8885L17.7227 19.993L17.6705 20.0453H17.7227C17.775 20.0453 17.775 19.993 17.8272 19.993L17.7227 20.0975L17.6705 20.1498C17.7227 20.0975 17.775 20.0975 17.8272 20.0975H17.8795V20.1498C17.8272 20.1498 17.775 20.202 17.775 20.202C17.8272 20.202 17.8272 20.202 17.8795 20.1498H17.9317V20.0975H17.984C18.0362 20.0975 18.0885 20.0453 18.193 20.0975H18.611C18.6632 20.0975 18.6632 20.0975 18.7155 20.0453H19.238C19.238 20.0453 19.238 19.993 19.2902 19.993H19.3425H19.3947C19.3947 19.993 19.447 19.993 19.447 19.9408H19.4992C19.4992 19.9408 19.5515 19.9408 19.6037 19.8885H19.656L19.7082 19.8363V19.7318C19.7082 19.6795 19.7082 19.6795 19.7605 19.6273V19.5228H19.8127V19.366H19.865V19.3138C19.865 19.3138 19.865 19.2615 19.9172 19.2615H19.9695V19.157C19.9695 19.1048 20.0217 19.1048 20.0217 19.1048H20.074V18.7913C20.074 18.739 20.074 18.739 20.0217 18.739L19.9695 18.6868V18.53C19.9695 18.53 19.9695 18.4778 19.9172 18.4778C19.9172 18.4255 19.865 18.4255 19.865 18.3733V18.2688L19.8127 18.2165V18.112C19.8127 18.0598 19.8127 18.0598 19.7605 18.0075L19.7082 17.9553V17.8508C19.7082 17.7985 19.7082 17.7985 19.656 17.7463V17.6418V17.694H20.1262V17.6418H20.2307H20.283C20.283 17.6418 20.3352 17.6418 20.3352 17.694H20.492L20.5442 17.6418V17.7463L20.5965 17.694L20.6487 17.6418C20.6487 17.5895 20.6487 17.5895 20.701 17.5895H20.7532V17.6418H20.8055C20.8055 17.6418 20.8055 17.5895 20.8577 17.5895V17.694C20.8577 17.694 20.91 17.694 20.91 17.6418C20.91 17.5895 20.9622 17.5895 21.0145 17.5895H21.0667C21.0667 17.5895 21.119 17.5895 21.119 17.6418V17.8508H21.0667V17.9553H21.119V18.1643C21.119 18.2165 21.119 18.2165 21.1712 18.2688V19.4183H20.3352C20.283 19.4183 20.2307 19.4705 20.2307 19.4705C20.2307 19.4705 20.1785 19.4705 20.1785 19.5228H20.1262C20.074 19.575 19.9695 19.575 19.9172 19.6795C19.865 19.6795 19.865 19.6795 19.865 19.7318V19.8363C19.865 19.784 19.9172 19.784 19.9172 19.7318V19.784C19.9172 19.784 19.9172 19.8363 19.865 19.8363C19.9172 19.784 19.9695 19.784 19.9695 19.784C19.9695 19.8363 19.9172 19.8363 19.9172 19.8885H19.9695C19.9695 19.8885 20.0217 19.8885 20.0217 19.8363C20.074 19.8363 20.074 19.784 20.074 19.7318C20.074 19.7318 20.1262 19.7318 20.1262 19.784C20.1262 19.8363 20.1262 19.8363 20.074 19.8885H20.1262C20.1785 19.8885 20.1785 19.8363 20.1785 19.8363C20.2307 19.8363 20.2307 19.8363 20.283 19.8885L20.2307 19.9408H20.283V19.8885H20.492C20.492 19.8885 20.5442 19.8885 20.5442 19.9408H20.701C20.7532 19.9408 20.7532 19.8885 20.8055 19.9408C21.0667 19.9408 20.8577 19.8363 21.119 19.9408V19.8885H22.373C22.3207 19.8885 22.3207 19.8885 22.373 19.784C22.373 19.784 22.373 19.7318 22.4252 19.6795C22.4252 19.6795 22.4252 19.6273 22.4775 19.6273V19.575C22.4775 19.575 22.4775 19.5228 22.5297 19.5228V19.4705L22.582 19.4183C22.582 19.4183 22.6342 19.4183 22.6342 19.366C22.6342 19.366 22.6342 19.3138 22.6865 19.3138L22.7387 19.2615H22.791V19.2093C22.791 19.157 22.791 19.157 22.8432 19.1048C22.8432 19.1048 22.8432 19.0525 22.8955 19.0525H22.9477V18.8958C22.9477 18.8958 23 18.8958 23 18.8435L23.0522 18.7913L23.1045 18.739L23.1567 18.6868L23.209 18.739V18.5823C23.209 18.5823 23.2612 18.53 23.2612 18.5823V18.53H23.3135L23.3657 18.4778V18.4255L23.418 18.3733H23.4702C23.4702 18.321 23.4702 18.321 23.5225 18.321C23.5225 18.321 23.5747 18.321 23.5747 18.2688L23.627 18.2165V18.1643H23.6792C23.6792 18.1643 23.6792 18.112 23.7315 18.1643H23.7837C23.836 18.1643 23.836 18.1643 23.8882 18.112L23.9405 18.0598C23.9927 18.0075 23.9927 18.0598 23.9927 18.0075C23.9927 17.9553 24.045 17.9553 24.045 17.9553C24.045 17.9553 24.045 17.903 24.0972 17.903H24.1495V17.7985H24.254C24.254 17.7985 24.3062 17.7985 24.3062 17.7463H24.3585C24.4107 17.7463 24.4107 17.7463 24.4107 17.7985V18.112C24.4107 18.112 24.463 18.0598 24.463 18.112V18.2165C24.5152 18.2165 24.5152 18.2165 24.5152 18.2688V18.321C24.5152 18.321 24.5152 18.3733 24.5675 18.3733V18.4255H24.6197C24.6197 18.4255 24.6197 18.4778 24.672 18.4778V18.53C24.672 18.53 24.7242 18.53 24.7242 18.5823H24.8287V18.6345C24.881 18.6345 24.881 18.6868 24.9332 18.6345C24.9332 18.6345 24.9855 18.6345 24.9855 18.6868H25.0377C25.0377 18.6868 25.09 18.6868 25.09 18.739H25.7692C25.8215 18.739 25.8737 18.739 25.926 18.7913C25.926 18.7913 25.926 18.8435 25.9782 18.8435V18.8958V19.0003L25.926 19.0525H25.4035C25.4035 19.0525 25.3512 19.0525 25.3512 19.1048H25.299C25.2467 19.1048 25.2467 19.1048 25.2467 19.157H25.1945C25.1945 19.157 25.508 18.8435 25.1422 19.157L25.09 19.2093L25.0377 19.2615L24.9332 19.366C24.9332 19.4183 24.881 19.4183 24.881 19.4705C24.881 19.4705 24.9332 19.4705 24.9332 19.4183C24.9855 19.4183 24.9855 19.366 25.0377 19.366V19.4183L24.9855 19.4705C24.9332 19.4705 24.9855 19.5228 24.9332 19.5228H24.9855C25.0377 19.5228 25.0377 19.4705 25.09 19.4705H25.1945C25.1945 19.4705 25.1945 19.5228 25.1422 19.5228C25.09 19.5228 25.09 19.575 25.0377 19.575H25.09L25.1945 19.5228H26.344H26.4485L26.5007 19.4705H26.553L26.6052 19.4183L26.6575 19.366L26.7097 19.3138H26.762L26.8142 19.2615H26.8665C26.9187 19.2615 26.9187 19.2093 26.971 19.2093C26.971 19.2093 27.0232 19.2093 27.0232 19.157H27.0755C27.0755 19.157 27.1277 19.157 27.1277 19.1048L27.18 19.0525H27.2322V18.948C27.18 19.993 27.2322 19.993 27.2322 19.9408Z" fill="#7F6644"/>
<path d="M27.1792 19.7318C27.1792 19.6795 27.1792 19.6795 27.1792 19.7318V19.4705C27.1792 19.4183 27.1792 19.4183 27.127 19.366L27.0747 19.3138L27.0225 19.2615V19.157C27.0225 19.157 27.0225 19.1048 26.9702 19.1048V19.0525L26.918 19.0003C26.918 19.0003 26.8658 19.0003 26.8658 18.948L26.8135 18.8958C26.8135 18.8958 26.8135 18.8435 26.7612 18.8435H26.709C26.709 18.8435 26.709 18.7913 26.6567 18.7913V18.3733C26.6567 18.3733 26.6567 18.321 26.6045 18.2688V18.112C26.6045 18.112 26.6045 18.0598 26.5522 18.0598V16.858C26.5522 16.8058 26.5 16.8058 26.5 16.7535V16.4923C26.5 16.44 26.5 16.44 26.4477 16.3878V16.231L26.3955 16.1788C26.3955 16.1788 26.3955 16.1265 26.3433 16.1265V16.022C26.3433 15.9698 26.291 15.9175 26.291 15.8653V15.6563C26.291 15.6563 26.291 15.604 26.2387 15.604V15.5518H26.291C26.3432 15.4995 26.3433 15.4995 26.3433 15.4473V15.2383C26.3433 15.186 26.291 15.186 26.291 15.1338V14.9248L26.2387 14.8725V14.8203C26.2387 14.8203 26.2387 14.768 26.1865 14.768C26.1865 14.7158 26.1865 14.6635 26.1342 14.6635L26.082 14.6113C26.082 14.6113 26.082 14.559 26.0297 14.559H25.9775V14.5068C25.9775 14.5068 25.9775 14.4545 25.9252 14.4545C25.9252 14.4023 25.873 14.4023 25.8208 14.35C25.8208 14.35 25.8207 14.2978 25.7685 14.2978C25.7685 14.2455 25.7162 14.1933 25.664 14.1933L25.6117 14.141C25.6117 14.141 25.6117 14.0888 25.5595 14.0888H25.5072C25.5072 14.0365 25.455 13.9843 25.4027 13.9843V13.932C25.4027 13.932 25.4027 13.8798 25.3505 13.8798L25.2983 13.8275C25.246 13.8275 25.246 13.7753 25.246 13.7753L25.1937 13.723H25.1415V13.6708C25.1415 13.6708 25.1415 13.6185 25.0892 13.6185C25.0892 13.6185 25.0892 13.5663 25.037 13.5663H24.9847C24.9325 13.514 24.8802 13.514 24.8802 13.4095C24.828 13.4095 24.7758 13.3573 24.7758 13.3573H24.7235C24.7235 13.3573 24.6712 13.3573 24.6712 13.305C24.619 13.305 24.619 13.2528 24.5667 13.2528C24.5667 13.2528 24.5667 13.2005 24.5145 13.2005C24.4622 13.2005 24.4622 13.2005 24.4622 13.1483C24.41 13.096 24.3577 13.096 24.3055 13.0438H24.1487C24.0965 13.0438 24.0965 12.9915 24.0442 12.9915H23.7308L23.6785 12.9393C23.6262 12.9393 23.6262 12.887 23.574 12.887H23.2083L23.156 12.8348H22.5812C22.529 12.8348 22.4245 12.7825 22.3722 12.7825H20.857C20.857 12.7825 20.7525 12.8348 20.7002 12.8348H18.8715C18.8192 12.8348 18.8193 12.8348 18.767 12.7825C18.7148 12.7825 18.6625 12.7303 18.6102 12.7303C18.558 12.7303 18.558 12.678 18.5058 12.678C18.4535 12.678 18.4535 12.678 18.4535 12.6258H18.4012C18.4012 12.6258 18.349 12.6258 18.4012 12.5735H18.349C18.2967 12.5735 18.2967 12.5735 18.2967 12.5213C18.2445 12.5213 18.2445 12.469 18.1922 12.469H18.14V12.4168H17.8787V12.3645H17.722C17.6698 12.3645 17.6697 12.3645 17.6697 12.3123V12.26C17.6697 12.26 17.6697 12.3123 17.6175 12.26C17.6175 12.26 17.5652 12.26 17.5652 12.2078H17.3562C17.304 12.2078 17.304 12.1555 17.304 12.2078H17.1995C17.1995 12.2078 17.1472 12.26 17.1472 12.2078H16.886L16.8337 12.26H16.5725C16.5202 12.26 16.5202 12.3123 16.468 12.3123H16.3635C16.3635 12.3123 16.3635 12.3645 16.3112 12.3123H16.259C16.2067 12.3123 16.2067 12.3123 16.1545 12.3645H15.8932C15.8932 12.3645 15.841 12.3645 15.841 12.4168H15.7887C15.7365 12.4168 15.7365 12.4168 15.6842 12.469C15.6842 12.469 15.632 12.469 15.632 12.5213C15.5797 12.5735 15.4752 12.5735 15.423 12.6258H15.3185C15.3185 12.6258 15.3185 12.678 15.2662 12.678L15.214 12.7303H15.1095C15.1095 12.7303 15.1095 12.7825 15.0572 12.7825H14.796L14.6915 12.887H14.6392C14.587 12.887 14.587 12.887 14.5347 12.9393H14.2735L14.2212 12.9915H14.169C14.169 12.9915 14.1167 12.9915 14.1167 13.0438L14.0645 13.096H14.0122C14.0122 13.096 13.96 13.096 13.96 13.1483C13.9077 13.2005 13.8555 13.2005 13.8032 13.2005C13.751 13.2005 13.751 13.2528 13.6987 13.2528H13.5942L13.4897 13.3573H13.4375L20.021 18.948V18.8958H20.0733V18.5823C20.0733 18.53 20.0732 18.53 20.021 18.53L19.9687 18.4778V18.321C19.9687 18.321 19.9687 18.2688 19.9165 18.2688C19.9165 18.2165 19.8642 18.2165 19.8642 18.1643V18.0598L19.812 18.0075V17.903C19.812 17.8508 19.812 17.8508 19.7597 17.7985L19.7075 17.7463V17.6418C19.7075 17.5895 19.7075 17.5895 19.6552 17.5373V17.4328V17.485H20.1255V17.4328H20.23H20.2822C20.2822 17.4328 20.3345 17.4328 20.3345 17.485H20.4912L20.5435 17.4328V17.5373L20.5958 17.485L20.648 17.4328C20.648 17.3805 20.648 17.3805 20.7002 17.3805H20.7525V17.4328H20.8047C20.8047 17.4328 20.8047 17.3805 20.857 17.3805V17.485C20.857 17.485 20.9092 17.485 20.9092 17.4328C20.9092 17.3805 20.9615 17.3805 21.0137 17.3805H21.066C21.066 17.3805 21.1182 17.3805 21.1182 17.4328V17.6418H21.066V17.7463H21.1182V17.9553C21.1182 18.0075 21.1182 18.0075 21.1705 18.0598V19.2093H20.5435L21.3272 19.8885H22.32C22.2677 19.8885 22.2677 19.8885 22.32 19.784C22.32 19.784 22.32 19.7318 22.3722 19.6795C22.3722 19.6795 22.3722 19.6273 22.4245 19.6273V19.575C22.4245 19.575 22.4245 19.5228 22.4767 19.5228V19.4705L22.529 19.4183C22.529 19.4183 22.5812 19.4183 22.5812 19.366C22.5812 19.366 22.5812 19.3138 22.6335 19.3138L22.6858 19.2615H22.738V19.2093C22.738 19.157 22.738 19.157 22.7902 19.1048C22.7902 19.1048 22.7902 19.0525 22.8425 19.0525H22.8947V18.8958C22.8947 18.8958 22.947 18.8958 22.947 18.8435L22.9992 18.7913L23.0515 18.739L23.1037 18.6868L23.156 18.739V18.5823C23.156 18.5823 23.2083 18.53 23.2083 18.5823V18.53H23.2605L23.3127 18.4778V18.4255L23.365 18.3733H23.4172C23.4172 18.321 23.4172 18.321 23.4695 18.321C23.4695 18.321 23.5217 18.321 23.5217 18.2688L23.574 18.2165V18.1643H23.6262C23.6262 18.1643 23.6262 18.112 23.6785 18.1643H23.7308C23.783 18.1643 23.783 18.1643 23.8352 18.112L23.8875 18.0598C23.9397 18.0075 23.9397 18.0598 23.9397 18.0075C23.9397 17.9553 23.992 17.9553 23.992 17.9553C23.992 17.9553 23.992 17.903 24.0442 17.903H24.0965V17.7985H24.201C24.201 17.7985 24.2533 17.7985 24.2533 17.7463H24.3055C24.3577 17.7463 24.3577 17.7463 24.3577 17.7985V18.112C24.3577 18.112 24.41 18.0598 24.41 18.112V18.2165C24.4622 18.2165 24.4622 18.2165 24.4622 18.2688V18.321C24.4622 18.321 24.4622 18.3733 24.5145 18.3733V18.4255H24.5667C24.5667 18.4255 24.5667 18.4778 24.619 18.4778V18.53C24.619 18.53 24.6712 18.53 24.6712 18.5823H24.7758V18.6345C24.828 18.6345 24.828 18.6868 24.8802 18.6345C24.8802 18.6345 24.9325 18.6345 24.9325 18.6868H24.9847C24.9847 18.6868 25.037 18.6868 25.037 18.739H25.7162C25.7685 18.739 25.8207 18.739 25.873 18.7913C25.873 18.7913 25.873 18.8435 25.9252 18.8435V18.8958V19.0003L25.873 19.0525H25.3505C25.3505 19.0525 25.2983 19.0525 25.2983 19.1048H25.246C25.1937 19.1048 25.1937 19.1048 25.1937 19.157H25.1415C25.1415 19.157 25.455 18.8435 25.0892 19.157L25.037 19.2093L24.9847 19.2615L24.8802 19.366C24.8802 19.4183 24.828 19.4183 24.828 19.4705C24.828 19.4705 24.8802 19.4705 24.8802 19.4183C24.9325 19.4183 24.9325 19.366 24.9847 19.366V19.4183L24.9325 19.4705C24.8802 19.4705 24.9325 19.5228 24.8802 19.5228H24.9325C24.9847 19.5228 24.9847 19.4705 25.037 19.4705H25.1415C25.1415 19.4705 25.1415 19.5228 25.0892 19.5228C25.037 19.5228 25.037 19.575 24.9847 19.575H25.037L25.1415 19.5228H26.291H26.3955L26.4477 19.4705H26.5L26.5522 19.4183L26.6045 19.366L26.6567 19.3138H26.709L26.7612 19.2615H26.8135C26.8657 19.2615 26.8657 19.2093 26.918 19.2093C26.918 19.2093 26.9702 19.2093 26.9702 19.157H27.0225C27.0225 19.157 27.0747 19.157 27.0747 19.1048L27.127 19.0525H27.1792V18.6868C27.2315 19.784 27.1792 19.7318 27.1792 19.7318Z" fill="#584528"/>
</g>
<defs>
<clipPath id="clip0_342_4925">
<rect width="33.44" height="33.44" fill="white" transform="translate(0.00976562 0.189941)"/>
</clipPath>
</defs>
</svg>
