<svg width="34" height="34" viewBox="0 0 34 34" fill="none" xmlns="http://www.w3.org/2000/svg">
<g clip-path="url(#clip0_342_4937)">
<path d="M33.1921 15.593V6.38672H11.5848C11.5564 6.69937 11.4121 6.99011 11.1803 7.20182C10.9486 7.41354 10.646 7.53093 10.332 7.53093C10.0181 7.53093 9.71553 7.41354 9.48373 7.20182C9.25194 6.99011 9.10769 6.69937 9.07933 6.38672H0.266602V15.5544C1.66336 15.7551 1.66079 17.9287 0.266602 18.1267V27.4282H8.89927C8.89157 27.2577 8.9185 27.0874 8.97843 26.9276C9.03837 26.7679 9.13006 26.6219 9.24798 26.4985C9.3659 26.3751 9.5076 26.277 9.66452 26.2099C9.82144 26.1428 9.99032 26.1082 10.161 26.1082C10.3316 26.1082 10.5005 26.1428 10.6574 26.2099C10.8144 26.277 10.9561 26.3751 11.074 26.4985C11.1919 26.6219 11.2836 26.7679 11.3435 26.9276C11.4035 27.0874 11.4304 27.2577 11.4227 27.4282H33.1921V17.9107C32.3227 17.4682 32.3227 16.0483 33.1921 15.593Z" fill="#EF2B2D"/>
<path d="M33.1921 15.3049H11.896V6.38672H8.68319V15.3049H0.266602V18.5152H8.68319V27.4333H11.896V18.5152H33.1921V15.3049Z" fill="#E1E6E9"/>
</g>
<defs>
<clipPath id="clip0_342_4937">
<rect width="33.44" height="33.44" fill="white" transform="translate(0.00976562 0.189453)"/>
</clipPath>
</defs>
</svg>
