<svg width="34" height="26" viewBox="0 0 34 26" fill="none" xmlns="http://www.w3.org/2000/svg">
<g clip-path="url(#clip0_342_4817)">
<path d="M0.00976562 0.370117H33.4498V8.73012H0.00976562V0.370117Z" fill="#FF9933"/>
<path d="M0.00976562 8.72998H33.4498V17.09H0.00976562V8.72998Z" fill="white"/>
<path d="M0.00976562 17.0903H33.4498V25.4503H0.00976562V17.0903Z" fill="#128807"/>
<path d="M16.7297 16.2544C18.5766 16.2544 20.0737 14.7572 20.0737 12.9104C20.0737 11.0636 18.5766 9.56641 16.7297 9.56641C14.8829 9.56641 13.3857 11.0636 13.3857 12.9104C13.3857 14.7572 14.8829 16.2544 16.7297 16.2544Z" fill="#000088"/>
<path d="M16.7297 15.8364C18.3457 15.8364 19.6557 14.5264 19.6557 12.9104C19.6557 11.2944 18.3457 9.98438 16.7297 9.98438C15.1137 9.98438 13.8037 11.2944 13.8037 12.9104C13.8037 14.5264 15.1137 15.8364 16.7297 15.8364Z" fill="white"/>
<path d="M16.7297 13.4956C17.0529 13.4956 17.3149 13.2336 17.3149 12.9104C17.3149 12.5872 17.0529 12.3252 16.7297 12.3252C16.4065 12.3252 16.1445 12.5872 16.1445 12.9104C16.1445 13.2336 16.4065 13.4956 16.7297 13.4956Z" fill="#000088"/>
<path d="M19.6117 13.4376C19.6918 13.4482 19.7653 13.3918 19.7759 13.3117C19.7864 13.2316 19.73 13.1581 19.6499 13.1475C19.5698 13.137 19.4963 13.1934 19.4858 13.2735C19.4752 13.3536 19.5316 13.4271 19.6117 13.4376Z" fill="#000088"/>
<path d="M16.7302 15.8362L16.8305 14.0806L16.7302 13.2446L16.6299 14.0806L16.7302 15.8362Z" fill="#000088"/>
<path d="M19.3777 14.1652C19.4523 14.1961 19.5379 14.1607 19.5688 14.086C19.5998 14.0114 19.5643 13.9258 19.4897 13.8949C19.415 13.8639 19.3294 13.8994 19.2985 13.974C19.2676 14.0487 19.303 14.1343 19.3777 14.1652Z" fill="#000088"/>
<path d="M15.973 15.7368L16.5243 14.067L16.6438 13.2335L16.3305 14.015L15.973 15.7368Z" fill="#000088"/>
<path d="M18.9624 14.8075C19.0265 14.8567 19.1183 14.8446 19.1675 14.7805C19.2167 14.7164 19.2046 14.6246 19.1405 14.5754C19.0764 14.5262 18.9845 14.5383 18.9354 14.6024C18.8862 14.6665 18.8983 14.7583 18.9624 14.8075Z" fill="#000088"/>
<path d="M15.2667 15.4445L16.2313 13.9742L16.5625 13.2001L16.0576 13.8739L15.2667 15.4445Z" fill="#000088"/>
<path d="M18.395 15.3206C18.4442 15.3847 18.536 15.3968 18.6001 15.3476C18.6642 15.2984 18.6763 15.2065 18.6271 15.1424C18.578 15.0783 18.4861 15.0662 18.422 15.1154C18.3579 15.1646 18.3458 15.2565 18.395 15.3206Z" fill="#000088"/>
<path d="M14.6613 14.9792L15.9736 13.8087L16.4938 13.1466L15.8317 13.6668L14.6613 14.9792Z" fill="#000088"/>
<path d="M17.7144 15.6695C17.7453 15.7441 17.8309 15.7796 17.9055 15.7487C17.9802 15.7178 18.0156 15.6322 17.9847 15.5575C17.9538 15.4829 17.8682 15.4474 17.7935 15.4783C17.7189 15.5093 17.6834 15.5949 17.7144 15.6695Z" fill="#000088"/>
<path d="M14.1964 14.3734L15.7669 13.5825L16.4408 13.0776L15.6666 13.4087L14.1964 14.3734Z" fill="#000088"/>
<path d="M16.9663 15.8302C16.9769 15.9103 17.0503 15.9667 17.1304 15.9562C17.2106 15.9456 17.2669 15.8721 17.2564 15.792C17.2459 15.7119 17.1724 15.6555 17.0923 15.6661C17.0121 15.6766 16.9558 15.7501 16.9663 15.8302Z" fill="#000088"/>
<path d="M13.9035 13.6676L15.6253 13.3101L16.4068 12.9968L15.5733 13.1163L13.9035 13.6676Z" fill="#000088"/>
<path d="M16.2025 15.7924C16.192 15.8725 16.2484 15.946 16.3285 15.9565C16.4086 15.9671 16.4821 15.9107 16.4926 15.8306C16.5032 15.7505 16.4468 15.677 16.3667 15.6665C16.2866 15.6559 16.2131 15.7123 16.2025 15.7924Z" fill="#000088"/>
<path d="M13.8039 12.9104L15.5595 13.0107L16.3955 12.9104L15.5595 12.8101L13.8039 12.9104Z" fill="#000088"/>
<path d="M15.4745 15.5579C15.4435 15.6325 15.479 15.7181 15.5536 15.749C15.6283 15.7799 15.7139 15.7445 15.7448 15.6698C15.7757 15.5952 15.7403 15.5096 15.6656 15.4787C15.591 15.4478 15.5054 15.4832 15.4745 15.5579Z" fill="#000088"/>
<path d="M13.9034 12.1532L15.5732 12.7045L16.4067 12.824L15.6251 12.5107L13.9034 12.1532Z" fill="#000088"/>
<path d="M14.8331 15.143C14.7839 15.2071 14.796 15.299 14.8601 15.3482C14.9242 15.3973 15.016 15.3852 15.0652 15.3211C15.1144 15.257 15.1023 15.1652 15.0382 15.116C14.9741 15.0668 14.8823 15.0789 14.8331 15.143Z" fill="#000088"/>
<path d="M14.1967 11.4478L15.6669 12.4125L16.4411 12.7436L15.7672 12.2387L14.1967 11.4478Z" fill="#000088"/>
<path d="M14.3201 14.5757C14.256 14.6249 14.2439 14.7167 14.2931 14.7808C14.3422 14.8449 14.4341 14.857 14.4982 14.8078C14.5623 14.7586 14.5744 14.6668 14.5252 14.6027C14.476 14.5386 14.3842 14.5265 14.3201 14.5757Z" fill="#000088"/>
<path d="M14.661 10.8419L15.8314 12.1542L16.4935 12.6745L15.9733 12.0124L14.661 10.8419Z" fill="#000088"/>
<path d="M13.9716 13.895C13.897 13.926 13.8615 14.0115 13.8924 14.0862C13.9234 14.1608 14.0089 14.1963 14.0836 14.1654C14.1582 14.1344 14.1937 14.0489 14.1628 13.9742C14.1318 13.8996 14.0463 13.8641 13.9716 13.895Z" fill="#000088"/>
<path d="M15.2677 10.3766L16.0586 11.9471L16.5635 12.621L16.2324 11.8468L15.2677 10.3766Z" fill="#000088"/>
<path d="M13.8109 13.1475C13.7308 13.158 13.6744 13.2315 13.6849 13.3116C13.6955 13.3917 13.769 13.4481 13.8491 13.4376C13.9292 13.427 13.9856 13.3535 13.975 13.2734C13.9645 13.1933 13.891 13.1369 13.8109 13.1475Z" fill="#000088"/>
<path d="M15.9736 10.0842L16.331 11.8059L16.6443 12.5875L16.5248 11.754L15.9736 10.0842Z" fill="#000088"/>
<path d="M13.8492 12.3832C13.7691 12.3726 13.6956 12.429 13.6851 12.5091C13.6745 12.5893 13.7309 12.6627 13.811 12.6733C13.8911 12.6838 13.9646 12.6274 13.9752 12.5473C13.9857 12.4672 13.9293 12.3937 13.8492 12.3832Z" fill="#000088"/>
<path d="M16.7307 9.98408L16.6304 11.7397L16.7307 12.5757L16.8311 11.7397L16.7307 9.98408Z" fill="#000088"/>
<path d="M14.0833 11.6551C14.0086 11.6242 13.923 11.6597 13.8921 11.7343C13.8612 11.809 13.8966 11.8945 13.9713 11.9255C14.0459 11.9564 14.1315 11.9209 14.1624 11.8463C14.1934 11.7716 14.1579 11.6861 14.0833 11.6551Z" fill="#000088"/>
<path d="M17.4879 10.0835L16.9366 11.7533L16.8172 12.5868L17.1304 11.8053L17.4879 10.0835Z" fill="#000088"/>
<path d="M14.4986 11.0128C14.4345 10.9636 14.3426 10.9757 14.2935 11.0398C14.2443 11.1039 14.2564 11.1957 14.3205 11.2449C14.3846 11.2941 14.4764 11.282 14.5256 11.2179C14.5748 11.1538 14.5627 11.062 14.4986 11.0128Z" fill="#000088"/>
<path d="M18.1943 10.3759L17.2296 11.8461L16.8985 12.6203L17.4034 11.9464L18.1943 10.3759Z" fill="#000088"/>
<path d="M15.0659 10.4998C15.0167 10.4357 14.9249 10.4236 14.8608 10.4727C14.7967 10.5219 14.7846 10.6138 14.8338 10.6779C14.883 10.742 14.9748 10.7541 15.0389 10.7049C15.103 10.6557 15.1151 10.5639 15.0659 10.4998Z" fill="#000088"/>
<path d="M18.8007 10.8412L17.4883 12.0116L16.9681 12.6737L17.6302 12.1535L18.8007 10.8412Z" fill="#000088"/>
<path d="M15.7466 10.1518C15.7156 10.0771 15.6301 10.0417 15.5554 10.0726C15.4808 10.1035 15.4453 10.1891 15.4762 10.2638C15.5072 10.3384 15.5927 10.3739 15.6674 10.3429C15.742 10.312 15.7775 10.2264 15.7466 10.1518Z" fill="#000088"/>
<path d="M19.2645 11.4479L17.694 12.2388L17.0202 12.7437L17.7943 12.4126L19.2645 11.4479Z" fill="#000088"/>
<path d="M16.4937 9.99108C16.4831 9.91097 16.4096 9.85458 16.3295 9.86512C16.2494 9.87567 16.193 9.94916 16.2036 10.0293C16.2141 10.1094 16.2876 10.1658 16.3677 10.1552C16.4478 10.1447 16.5042 10.0712 16.4937 9.99108Z" fill="#000088"/>
<path d="M19.5574 12.1537L17.8357 12.5112L17.0541 12.8245L17.8876 12.705L19.5574 12.1537Z" fill="#000088"/>
<path d="M17.2574 10.0289C17.268 9.94878 17.2116 9.87529 17.1315 9.86474C17.0514 9.85419 16.9779 9.91059 16.9673 9.99069C16.9568 10.0708 17.0132 10.1443 17.0933 10.1548C17.1734 10.1654 17.2469 10.109 17.2574 10.0289Z" fill="#000088"/>
<path d="M19.6561 12.9109L17.9005 12.8106L17.0645 12.9109L17.9005 13.0112L19.6561 12.9109Z" fill="#000088"/>
<path d="M17.9855 10.2634C18.0164 10.1888 17.981 10.1032 17.9063 10.0723C17.8317 10.0414 17.7461 10.0768 17.7152 10.1515C17.6842 10.2261 17.7197 10.3117 17.7943 10.3426C17.869 10.3735 17.9546 10.3381 17.9855 10.2634Z" fill="#000088"/>
<path d="M19.5576 13.6681L17.8878 13.1168L17.0543 12.9973L17.8358 13.3106L19.5576 13.6681Z" fill="#000088"/>
<path d="M18.6269 10.6792C18.676 10.6151 18.664 10.5233 18.5999 10.4741C18.5358 10.4249 18.4439 10.437 18.3947 10.5011C18.3455 10.5652 18.3576 10.6571 18.4217 10.7062C18.4858 10.7554 18.5777 10.7433 18.6269 10.6792Z" fill="#000088"/>
<path d="M19.2633 14.3744L17.7931 13.4098L17.0189 13.0786L17.6927 13.5835L19.2633 14.3744Z" fill="#000088"/>
<path d="M19.1409 11.2466C19.205 11.1974 19.2171 11.1056 19.1679 11.0415C19.1187 10.9774 19.0268 10.9653 18.9627 11.0145C18.8986 11.0636 18.8866 11.1555 18.9357 11.2196C18.9849 11.2837 19.0768 11.2958 19.1409 11.2466Z" fill="#000088"/>
<path d="M18.799 14.9804L17.6285 13.668L16.9664 13.1478L17.4866 13.8099L18.799 14.9804Z" fill="#000088"/>
<path d="M19.4903 11.9263C19.5649 11.8953 19.6004 11.8098 19.5695 11.7351C19.5386 11.6605 19.453 11.625 19.3783 11.6559C19.3037 11.6868 19.2682 11.7724 19.2992 11.8471C19.3301 11.9217 19.4157 11.9572 19.4903 11.9263Z" fill="#000088"/>
<path d="M18.1942 15.4447L17.4033 13.8742L16.8984 13.2003L17.2295 13.9745L18.1942 15.4447Z" fill="#000088"/>
<path d="M19.65 12.6743C19.7301 12.6638 19.7865 12.5903 19.776 12.5102C19.7654 12.4301 19.692 12.3737 19.6118 12.3842C19.5317 12.3948 19.4753 12.4683 19.4859 12.5484C19.4964 12.6285 19.5699 12.6849 19.65 12.6743Z" fill="#000088"/>
<path d="M17.4874 15.7376L17.1299 14.0158L16.8166 13.2343L16.9361 14.0678L17.4874 15.7376Z" fill="#000088"/>
</g>
<defs>
<clipPath id="clip0_342_4817">
<rect width="33.44" height="25.08" fill="white" transform="translate(0.00976562 0.370117)"/>
</clipPath>
</defs>
</svg>
