<svg width="34" height="34" viewBox="0 0 34 34" fill="none" xmlns="http://www.w3.org/2000/svg">
<g clip-path="url(#clip0_342_4918)">
<path fill-rule="evenodd" clip-rule="evenodd" d="M32.5108 28.4729H0.942062C0.426939 28.4729 0.00976562 28.0558 0.00976562 27.5407V6.27312C0.00976562 5.75799 0.426939 5.34082 0.942062 5.34082H32.5108C33.026 5.34082 33.4431 5.75799 33.4431 6.27312V27.5407C33.4431 28.0558 33.0258 28.4729 32.5108 28.4729Z" fill="#FE5022"/>
<path fill-rule="evenodd" clip-rule="evenodd" d="M11.4952 21.1875L8.19922 28.4726H32.5105C33.0255 28.4726 33.4428 28.0554 33.4428 27.5403V21.1875L11.4952 21.1875Z" fill="#4D4D4D"/>
<path fill-rule="evenodd" clip-rule="evenodd" d="M8.20118 5.34082L11.4952 12.6259H33.4432V6.27312C33.4432 5.758 33.026 5.34083 32.5109 5.34083L8.20118 5.34082Z" fill="#378B4E"/>
<path fill-rule="evenodd" clip-rule="evenodd" d="M11.6869 13.1664V20.6473C11.6869 20.7238 11.6709 20.7998 11.6393 20.8695L11.4955 21.1874H33.4431V12.6255H11.4951L11.6392 12.9442C11.6707 13.014 11.6869 13.0897 11.6869 13.1664Z" fill="#F2F2F2"/>
<path fill-rule="evenodd" clip-rule="evenodd" d="M8.19944 26.4371H0.942062C0.426939 26.4371 0.00976562 26.0199 0.00976562 25.5049V27.5404C0.00976562 28.0554 0.426939 28.4726 0.942062 28.4726H8.19944L9.12032 26.4371H8.19944Z" fill="#E5481F"/>
<path fill-rule="evenodd" clip-rule="evenodd" d="M32.5105 26.4371H9.1201L8.19922 28.4726H32.5105C33.0255 28.4726 33.4428 28.0554 33.4428 27.5404V25.5049C33.4428 26.0199 33.0254 26.4371 32.5105 26.4371Z" fill="#454545"/>
</g>
<defs>
<clipPath id="clip0_342_4918">
<rect width="33.44" height="33.44" fill="white" transform="translate(0.00976562 0.189941)"/>
</clipPath>
</defs>
</svg>
