<svg width="201" height="157" viewBox="0 0 201 157" fill="none" xmlns="http://www.w3.org/2000/svg">
<g filter="url(#filter0_dd_160_4600)">
<path d="M8.27399 75.5529C8.67123 36.8193 50.3088 5.84325 101.274 6.36593C152.239 6.88861 193.233 38.7121 192.835 77.4457C192.438 116.179 150.801 147.155 99.8355 146.633C48.8702 146.11 7.87676 114.287 8.27399 75.5529Z" fill="white"/>
</g>
<path d="M81.6929 92.468H75.9158L58.5339 66.1672V92.468H52.7568V57.1975H58.5339L75.9158 83.4477V57.1975H81.6929V92.468Z" fill="#0005E9"/>
<path d="M127.606 57.2488C131.356 57.2488 134.633 57.9751 137.437 59.4279C140.275 60.8468 142.454 62.9076 143.974 65.6103C145.528 68.2793 146.305 71.4043 146.305 74.9854C146.305 78.5665 145.528 81.6746 143.974 84.3098C142.454 86.9449 140.275 88.972 137.437 90.3909C134.633 91.7761 131.356 92.4686 127.606 92.4686H116.102V57.2488H127.606ZM127.606 87.7558C131.727 87.7558 134.886 86.6409 137.082 84.4111C139.278 82.1814 140.376 79.0395 140.376 74.9854C140.376 70.8975 139.278 67.7049 137.082 65.4076C134.886 63.1103 131.727 61.9617 127.606 61.9617H121.879V87.7558H127.606Z" fill="#0005E9"/>
<path d="M85.243 75.7484L118.213 29.9562C118.385 29.7178 118.757 29.9137 118.657 30.1901L102.247 75.7731C102.202 75.8992 102.263 76.039 102.386 76.0918L110.735 79.6699C110.887 79.7351 110.937 79.926 110.836 80.0572L78.4584 122.209C78.282 122.439 77.9206 122.241 78.0192 121.969L93.219 80.0173C93.2638 79.8935 93.2065 79.756 93.087 79.7009L85.3424 76.1265C85.1978 76.0597 85.1499 75.8777 85.243 75.7484Z" fill="#F30304"/>
<path fill-rule="evenodd" clip-rule="evenodd" d="M117.142 32.5282L86.0251 75.7454L93.3512 79.1266C93.7695 79.3197 93.9703 79.8008 93.8134 80.2339L79.4493 119.879L110.035 80.0603L102.135 76.6749C101.704 76.49 101.491 76.001 101.65 75.5594L117.142 32.5282ZM117.698 29.587C118.299 28.7525 119.6 29.4381 119.252 30.4055L102.964 75.6515L110.983 79.0886C111.515 79.3166 111.69 79.9849 111.337 80.4439L78.9595 122.596C78.3422 123.4 77.0772 122.707 77.4224 121.754L92.5033 80.1306L85.0758 76.7025C84.5695 76.4689 84.4019 75.8316 84.7277 75.3791L117.698 29.587ZM102.635 75.5107C102.635 75.5106 102.635 75.5105 102.634 75.5104L102.485 75.8598L102.634 75.5104L102.635 75.5107Z" fill="#F30304"/>
<path d="M148.764 29.8405C163.359 38.6863 173.416 51.14 177.168 65.0142C180.92 78.8885 178.128 93.2961 169.282 105.707C160.437 118.117 146.102 127.737 128.798 132.877C111.493 138.017 92.3237 138.348 74.657 133.812L75.4002 132.115C92.5407 136.516 111.139 136.194 127.929 131.208C144.718 126.221 158.625 116.887 167.208 104.846C175.79 92.8052 178.499 78.8266 174.859 65.3654C171.218 51.9043 161.461 39.8215 147.301 31.2391L148.764 29.8405Z" fill="black"/>
<path d="M137.51 26.0606C137.364 25.8939 137.488 25.6329 137.709 25.6402L150.347 26.0601C150.529 26.0661 150.646 26.2569 150.568 26.4217L146.271 35.5056C146.193 35.6704 145.971 35.7014 145.851 35.5644L137.51 26.0606Z" fill="black"/>
<path d="M60.5359 129.955C42.9786 122.384 29.8894 110.002 23.9438 95.34C17.9983 80.6785 19.6456 64.8447 28.5488 51.0755C37.452 37.3062 52.9389 26.6412 71.8436 21.2606C90.7484 15.8801 111.643 16.1903 130.257 22.1278L129.345 23.7801C111.285 18.0194 91.0123 17.7184 72.6705 22.9388C54.3287 28.1591 39.303 38.5065 30.6649 51.8658C22.0268 65.225 20.4286 80.5873 26.1971 94.8123C31.9655 109.037 44.665 121.051 61.6995 128.397L60.5359 129.955Z" fill="black"/>
<path d="M71.9026 131.412C72.0754 131.551 71.9986 131.829 71.7789 131.86L59.2568 133.617C59.0763 133.642 58.9289 133.474 58.9774 133.298L61.6507 123.611C61.6992 123.436 61.9118 123.367 62.0538 123.482L71.9026 131.412Z" fill="black"/>
<defs>
<filter id="filter0_dd_160_4600" x="0.270996" y="0.359375" width="200.567" height="156.28" filterUnits="userSpaceOnUse" color-interpolation-filters="sRGB">
<feFlood flood-opacity="0" result="BackgroundImageFix"/>
<feColorMatrix in="SourceAlpha" type="matrix" values="0 0 0 0 0 0 0 0 0 0 0 0 0 0 0 0 0 0 127 0" result="hardAlpha"/>
<feOffset dy="1"/>
<feGaussianBlur stdDeviation="1"/>
<feColorMatrix type="matrix" values="0 0 0 0 0 0 0 0 0 0 0 0 0 0 0 0 0 0 0.3 0"/>
<feBlend mode="normal" in2="BackgroundImageFix" result="effect1_dropShadow_160_4600"/>
<feColorMatrix in="SourceAlpha" type="matrix" values="0 0 0 0 0 0 0 0 0 0 0 0 0 0 0 0 0 0 127 0" result="hardAlpha"/>
<feMorphology radius="2" operator="dilate" in="SourceAlpha" result="effect2_dropShadow_160_4600"/>
<feOffset dy="2"/>
<feGaussianBlur stdDeviation="3"/>
<feColorMatrix type="matrix" values="0 0 0 0 0 0 0 0 0 0 0 0 0 0 0 0 0 0 0.15 0"/>
<feBlend mode="normal" in2="effect1_dropShadow_160_4600" result="effect2_dropShadow_160_4600"/>
<feBlend mode="normal" in="SourceGraphic" in2="effect2_dropShadow_160_4600" result="shape"/>
</filter>
</defs>
</svg>
