<svg width="159" height="146" viewBox="0 0 159 146" fill="none" xmlns="http://www.w3.org/2000/svg">
<path d="M159 141.74H149.062V129.188H135.464V141.74H128.142V129.188H114.543V141.74H107.221V129.188H93.6221V141.74H86.2998V129.188H72.7002V141.74H65.3779V129.188H51.7793V141.74H44.457V129.188H30.8584V141.74H23.5361V129.188H9.9375V141.74H0V0H159V141.74Z" fill="white"/>
<rect x="19" y="141" width="5" height="5" fill="white"/>
<rect x="40" y="141" width="5" height="5" fill="white"/>
<rect x="82" y="141" width="5" height="5" fill="white"/>
<rect x="103" y="141" width="5" height="5" fill="white"/>
<rect x="124" y="141" width="5" height="5" fill="white"/>
<rect x="145" y="141" width="5" height="5" fill="white"/>
<rect x="61" y="141" width="5" height="5" fill="white"/>
</svg>
