<svg width="69" height="69" viewBox="0 0 69 69" fill="none" xmlns="http://www.w3.org/2000/svg">
<path d="M34.5147 60.9071C49.0129 60.9071 60.7656 49.1543 60.7656 34.6561C60.7656 20.1579 49.0129 8.40515 34.5147 8.40515C20.0165 8.40515 8.26367 20.1579 8.26367 34.6561C8.26367 49.1543 20.0165 60.9071 34.5147 60.9071Z" fill="#5C2D91"/>
<path opacity="0.1" d="M17.0651 14.9675C14.3905 17.35 12.2307 20.2536 10.7182 23.5004C9.20558 26.7472 8.37208 30.2687 8.26876 33.849C8.16544 37.4293 8.79448 40.993 10.1173 44.3216C11.4401 47.6502 13.4289 50.6736 15.9616 53.2063C18.4943 55.7391 21.5177 57.7278 24.8463 59.0506C28.1749 60.3734 31.7386 61.0025 35.3189 60.8992C38.8993 60.7958 42.4208 59.9623 45.6675 58.4498C48.9143 56.9372 51.8179 54.7774 54.2004 52.1028L17.0651 14.9675Z" fill="white"/>
<path d="M14.97 41.7799C14.819 41.7824 14.6691 41.7535 14.5298 41.6952C14.3905 41.6368 14.2648 41.5502 14.1606 41.4408C14.0537 41.3352 13.9693 41.209 13.9123 41.0699C13.8553 40.9308 13.8271 40.7817 13.8292 40.6314C13.8281 40.4813 13.8568 40.3324 13.9137 40.1934C13.9706 40.0545 14.0545 39.9282 14.1606 39.822C14.2637 39.7106 14.389 39.6221 14.5284 39.5621C14.6678 39.5022 14.8183 39.4723 14.97 39.4742C15.1216 39.4737 15.2716 39.5044 15.4108 39.5642C15.55 39.624 15.6755 39.7118 15.7794 39.822C15.8873 39.9273 15.973 40.0532 16.0312 40.1923C16.0895 40.3313 16.1191 40.4806 16.1185 40.6314C16.1201 40.7823 16.0908 40.9319 16.0325 41.0711C15.9742 41.2103 15.8881 41.3361 15.7794 41.4408C15.6745 41.5491 15.5486 41.635 15.4095 41.6933C15.2704 41.7515 15.1209 41.781 14.97 41.7799ZM31.0455 41.5775H28.9268L21.3457 29.8138C21.1568 29.5236 20.9992 29.2141 20.8754 28.8906H20.8109C20.8831 29.5622 20.9104 30.2382 20.8918 30.9142V41.5775H19.1691V26.8278H21.4103L28.789 38.3815C29.0963 38.8616 29.2954 39.1909 29.3873 39.3692H29.4278C29.3425 38.6495 29.3075 37.9254 29.3228 37.2002V26.8278H31.0466L31.0455 41.5775ZM42.713 41.5775H34.8738V26.8278H42.3498V28.3897H36.638V33.2921H41.9615V34.8452H36.638V39.9598H42.7228L42.713 41.5775ZM54.2907 28.3886H50.0031V41.5775H48.2793V28.3886H44.0397V26.8267H54.2907V28.3886Z" fill="white"/>
</svg>
