<svg width="70" height="69" viewBox="0 0 70 69" fill="none" xmlns="http://www.w3.org/2000/svg">
<path d="M29.7274 36.4527C29.7274 36.4527 28.3424 37.2586 30.7146 37.5311C33.5883 37.8592 35.0571 37.8119 38.2234 37.2135C38.2234 37.2135 39.058 37.7352 40.2203 38.1873C33.1201 41.2292 24.1509 38.011 29.7274 36.4527ZM28.859 32.4822C28.859 32.4822 27.3054 33.6331 29.6793 33.8785C32.7494 34.1952 35.1731 34.2214 39.3701 33.4133C39.3701 33.4133 39.9491 34.0021 40.8613 34.323C32.2784 36.834 22.7183 34.5208 28.859 32.4822Z" fill="#0074BD"/>
<path d="M36.1715 25.7464C37.9221 27.7615 35.7127 29.5732 35.7127 29.5732C35.7127 29.5732 40.1547 27.2803 38.1148 24.4079C36.2091 21.7304 34.7486 20.4007 42.6572 15.814C42.6572 15.814 30.2425 18.9136 36.1715 25.7464Z" fill="#EA2D2E"/>
<path d="M45.5611 39.3897C45.5611 39.3897 46.5868 40.2353 44.4317 40.889C40.3343 42.1301 27.3755 42.5046 23.776 40.9383C22.483 40.3753 24.9092 39.5943 25.6721 39.4302C26.4679 39.2577 26.9225 39.2894 26.9225 39.2894C25.4836 38.2759 17.6214 41.2795 22.9292 42.1411C37.4045 44.4871 49.3153 41.0842 45.5611 39.3897ZM30.3917 28.3683C30.3917 28.3683 23.8005 29.9342 28.0578 30.5035C29.8561 30.7439 33.4382 30.6887 36.7774 30.4087C39.5056 30.1797 42.2434 29.69 42.2434 29.69C42.2434 29.69 41.2823 30.1025 40.586 30.5773C33.8916 32.338 20.9619 31.5178 24.6844 29.7179C27.8318 28.195 30.3917 28.3683 30.3917 28.3683ZM42.216 34.9768C49.0205 31.4419 45.874 28.0445 43.6781 28.502C43.1413 28.6142 42.9 28.7112 42.9 28.7112C42.9 28.7112 43.1004 28.3974 43.4812 28.2629C47.8258 26.7363 51.1663 32.7674 42.0802 35.156C42.0802 35.156 42.1844 35.0616 42.216 34.9768Z" fill="#0074BD"/>
<path d="M38.1161 8.40588C38.1161 8.40588 41.8843 12.1757 34.5416 17.9715C28.6535 22.6218 33.1988 25.2728 34.5391 28.3029C31.102 25.2015 28.5809 22.4713 30.272 19.9308C32.7556 16.2019 39.636 14.3931 38.1161 8.40588Z" fill="#EA2D2E"/>
<path d="M31.0619 44.5588C37.5919 44.9763 47.6227 44.3264 47.8601 41.2365C47.8601 41.2365 47.4038 42.4076 42.4624 43.3371C36.8881 44.3863 30.0118 44.2644 25.9346 43.5914C25.9346 43.5914 26.7696 44.283 31.0619 44.5588Z" fill="#0074BD"/>
<path d="M47.557 50.1012H47.3579V49.9899H47.8935V50.1012H47.6953V50.6567H47.5566L47.557 50.1012ZM48.6261 50.1291H48.6235L48.4262 50.6567H48.3351L48.139 50.1291H48.1369V50.6567H48.0053V49.9899H48.198L48.3798 50.4618L48.562 49.9899H48.7534V50.6567H48.6261V50.1291ZM29.99 56.3664C29.3743 56.9003 28.7232 57.2006 28.1382 57.2006C27.3057 57.2006 26.8541 56.7004 26.8541 55.8995C26.8541 55.0329 27.3374 54.3982 29.2739 54.3982H29.9896L29.99 56.3664ZM31.69 58.2844V52.3478C31.69 50.83 30.8242 49.8288 28.7392 49.8288C27.5221 49.8288 26.4551 50.1299 25.5876 50.5128L25.8373 51.5642C26.5205 51.3133 27.404 51.0805 28.2711 51.0805C29.473 51.0805 29.9896 51.5642 29.9896 52.5654V53.3156H29.3891C26.4703 53.3156 25.1532 54.448 25.1532 56.1509C25.1532 57.6181 26.0212 58.4518 27.6553 58.4518C28.7054 58.4518 29.4903 58.0183 30.2228 57.3836L30.3561 58.2848L31.69 58.2844ZM37.3631 58.2844H35.243L32.6912 49.981H34.543L36.127 55.0835L36.4791 56.6165C37.2787 54.399 37.8455 52.1479 38.1289 49.9815H39.9301C39.4481 52.7147 38.5793 55.7161 37.3631 58.2844ZM45.4973 56.3664C44.8795 56.9003 44.2279 57.2006 43.6451 57.2006C42.8117 57.2006 42.3605 56.7004 42.3605 55.8995C42.3605 55.0329 42.8451 54.3982 44.7795 54.3982H45.4969L45.4973 56.3664ZM47.1981 58.2844V52.3478C47.1981 50.83 46.3298 49.8288 44.2465 49.8288C43.0281 49.8288 41.9615 50.1299 41.0941 50.5128L41.3441 51.5642C42.0273 51.3133 42.9121 51.0805 43.7792 51.0805C44.9794 51.0805 45.4973 51.5642 45.4973 52.5654V53.3156H44.8968C41.9771 53.3156 40.6605 54.448 40.6605 56.1509C40.6605 57.6181 41.5276 58.4518 43.1614 58.4518C44.2119 58.4518 44.9954 58.0183 45.7301 57.3836L45.8642 58.2848L47.1981 58.2844ZM23.2892 59.6955C22.8055 60.4036 22.0219 60.9641 21.165 61.2799L20.3262 60.291C20.9786 59.9561 21.5374 59.4159 21.7976 58.9124C22.0219 58.4641 22.1151 57.8876 22.1151 56.5081V47.0269H23.9218V56.3778C23.9218 58.2228 23.775 58.9689 23.2892 59.6955Z" fill="#EA2D2E"/>
</svg>
