<svg width="70" height="69" viewBox="0 0 70 69" fill="none" xmlns="http://www.w3.org/2000/svg">
<path d="M47.4897 57.6297C47.2944 57.7331 47.3108 57.7659 47.4979 57.6707C47.5586 57.6461 47.6094 57.6116 47.6537 57.5706C47.6537 57.5362 47.6537 57.5362 47.4897 57.6297ZM47.8834 57.4164C47.7899 57.4935 47.7899 57.4935 47.9015 57.4426C47.9606 57.4082 48.0131 57.3754 48.0131 57.3655C48.0131 57.3212 47.9868 57.3311 47.8834 57.4164ZM48.1394 57.2622C48.0459 57.3393 48.0459 57.3393 48.1574 57.2884C48.2182 57.254 48.269 57.2179 48.269 57.2097C48.269 57.1686 48.2428 57.1768 48.1394 57.2622ZM48.3986 57.1096C48.3051 57.1867 48.3051 57.1867 48.4134 57.1342C48.4741 57.1014 48.525 57.0669 48.525 57.0571C48.525 57.0161 48.4987 57.0243 48.3986 57.1096ZM48.7481 56.8782C48.5693 56.998 48.5069 57.0751 48.671 56.9898C48.7809 56.9225 48.968 56.7749 48.9352 56.7749C48.8646 56.8011 48.8055 56.8454 48.7465 56.8782H48.7481ZM33.0576 8.41697C32.9378 8.42517 32.5785 8.45799 32.2635 8.48424C24.8013 9.16023 17.8199 13.1768 13.3948 19.3641C10.9485 22.7555 9.36022 26.695 8.76135 30.8313C8.54969 32.2751 8.52344 32.7017 8.52344 34.6592C8.52344 36.6149 8.54969 37.035 8.76135 38.4788C10.1904 48.3414 17.2063 56.6206 26.7161 59.6888C28.4274 60.2352 30.2207 60.6126 32.2635 60.8439C33.0576 60.9292 36.4917 60.9292 37.2858 60.8439C40.8167 60.4501 43.798 59.5789 46.748 58.0743C47.2009 57.8446 47.2862 57.7839 47.2255 57.7331C45.7816 55.8281 44.364 53.9216 42.9448 51.9986L38.7494 46.3331L33.494 38.5477C31.7417 35.9422 29.9828 33.3433 28.1961 30.764C28.178 30.764 28.155 34.2244 28.1452 38.4444C28.1271 45.836 28.1271 46.1362 28.0336 46.3069C27.9401 46.512 27.7859 46.6826 27.5808 46.7778C27.4183 46.8549 27.2723 46.8713 26.4962 46.8713H25.6086L25.3772 46.7269C25.2329 46.6334 25.1131 46.5038 25.036 46.3512L24.9244 46.1198L24.9326 35.8307L24.9506 25.5415L25.1131 25.3364C25.2164 25.2101 25.3444 25.1067 25.4888 25.0296C25.7038 24.9262 25.7891 24.9098 26.6767 24.9098C27.7186 24.9098 27.8909 24.9508 28.1649 25.2511C30.2913 28.421 32.4111 31.5992 34.4965 34.7871C37.9077 39.9588 42.5641 47.0157 44.853 50.4777L49.0156 56.7765L49.2207 56.6403C51.2207 55.3064 53.0403 53.7181 54.6105 51.9067C57.9183 48.1199 60.0644 43.4618 60.7912 38.4903C61.0029 37.0465 61.0291 36.6182 61.0291 34.6624C61.0291 32.705 61.0029 32.2866 60.7912 30.8428C59.3621 20.9802 52.3463 12.701 42.8365 9.63112C41.0579 9.06835 39.2285 8.68441 37.3761 8.48752C36.8789 8.43666 33.4858 8.37595 33.0592 8.42025L33.0576 8.41697ZM43.7996 24.2945C44.0474 24.4127 44.2344 24.6358 44.3197 24.8918C44.364 25.0296 44.3722 27.8829 44.364 34.3097L44.346 43.5373L42.7233 41.0433L41.0907 38.5477V31.8486C41.0907 27.5055 41.1088 25.0706 41.1317 24.9508C41.2089 24.6768 41.3959 24.4471 41.6453 24.3027C41.8488 24.1994 41.9275 24.1912 42.7397 24.1912C43.4994 24.1912 43.629 24.1994 43.7996 24.2945Z" fill="black"/>
</svg>
