<svg width="62" height="69" viewBox="0 0 62 69" fill="none" xmlns="http://www.w3.org/2000/svg">
<path d="M31.0394 64.2413C30.2241 64.2413 29.4631 64.0239 28.7565 63.6434L21.5274 59.3494C20.4403 58.7515 20.9838 58.5341 21.3099 58.4254C22.7775 57.9362 23.0493 57.8274 24.5712 56.9578C24.7343 56.8491 24.9517 56.9034 25.1148 57.0121L30.6589 60.3278C30.8763 60.4365 31.1481 60.4365 31.3112 60.3278L52.9987 47.7718C53.2161 47.6631 53.3248 47.4457 53.3248 47.1739V22.1165C53.3248 21.8447 53.2161 21.6273 52.9987 21.5186L31.3112 9.017C31.0938 8.90829 30.822 8.90829 30.6589 9.017L8.97144 21.5186C8.75402 21.6273 8.64531 21.899 8.64531 22.1165V47.1739C8.64531 47.3914 8.75402 47.6631 8.97144 47.7718L14.8961 51.1962C18.103 52.8268 20.1141 50.9244 20.1141 49.022V24.2906C20.1141 23.9645 20.3859 23.6384 20.7664 23.6384H23.5385C23.8646 23.6384 24.1907 23.9102 24.1907 24.2906V49.022C24.1907 53.316 21.8535 55.8163 17.7769 55.8163C16.5267 55.8163 15.5483 55.8163 12.7763 54.4575L7.06903 51.1962C5.65581 50.3809 4.78613 48.8589 4.78613 47.2283V22.1708C4.78613 20.5402 5.65581 19.0183 7.06903 18.2029L28.7565 5.64702C30.1154 4.88605 31.9634 4.88605 33.3223 5.64702L55.0098 18.2029C56.423 19.0183 57.2927 20.5402 57.2927 22.1708V47.2283C57.2927 48.8589 56.423 50.3809 55.0098 51.1962L33.3223 63.7521C32.6157 64.0782 31.8004 64.2413 31.0394 64.2413ZM37.725 47.0109C28.213 47.0109 26.2562 42.6625 26.2562 38.9664C26.2562 38.6403 26.528 38.3141 26.9085 38.3141H29.7349C30.061 38.3141 30.3328 38.5316 30.3328 38.8577C30.7676 41.7385 32.0178 43.1517 37.7794 43.1517C42.3452 43.1517 44.3019 42.119 44.3019 39.673C44.3019 38.2598 43.7584 37.227 36.6379 36.5204C30.7133 35.9225 27.0172 34.618 27.0172 29.8892C27.0172 25.4865 30.7133 22.8774 36.9097 22.8774C43.8671 22.8774 47.2914 25.269 47.7263 30.4871C47.7263 30.6501 47.6719 30.8132 47.5632 30.9763C47.4545 31.085 47.2914 31.1937 47.1284 31.1937H44.3019C44.0302 31.1937 43.7584 30.9763 43.704 30.7045C43.0518 27.715 41.3668 26.7366 36.9097 26.7366C31.9091 26.7366 31.3112 28.476 31.3112 29.7805C31.3112 31.3568 32.0178 31.8459 38.7578 32.7156C45.4434 33.5853 48.596 34.8354 48.596 39.5099C48.5416 44.2931 44.6281 47.0109 37.725 47.0109Z" fill="#539E43"/>
</svg>
