<svg width="69" height="69" viewBox="0 0 69 69" fill="none" xmlns="http://www.w3.org/2000/svg">
<path d="M34.37 21.2639C19.8715 21.2639 8.11719 27.2206 8.11719 34.5682C8.11719 41.9159 19.8715 47.8726 34.37 47.8726C48.8685 47.8726 60.6229 41.9159 60.6229 34.5682C60.6229 27.2206 48.8685 21.2639 34.37 21.2639ZM27.5389 37.1603C26.9124 37.7464 26.2167 37.9883 25.4505 38.2376C24.6843 38.4872 23.7093 38.4357 22.5237 38.4357H19.8367L19.092 42.7328H15.9547L18.7543 28.1226H24.7875C26.6026 28.1226 27.9265 28.6447 28.7589 29.5973C29.5912 30.55 29.8413 31.9023 29.5096 33.6096C29.3725 34.313 29.1417 34.967 28.816 35.5497C28.4899 36.1328 28.064 36.6773 27.5389 37.1603ZM36.6965 38.4357L37.9345 32.2392C38.0755 31.5138 38.0239 30.975 37.7794 30.7116C37.5344 30.4477 37.0136 30.2711 36.2174 30.2711H33.7293L32.1261 38.4357H29.0132L31.8128 24.2551H34.9257L34.1814 28.1226H36.9543C38.6994 28.1226 39.9026 28.4728 40.5648 29.0812C41.227 29.6897 41.4255 30.5234 41.1608 31.8864L39.8583 38.4357H36.6965ZM53.9963 33.6323C53.8596 34.3358 53.6285 34.9786 53.3032 35.5609C52.9774 36.144 52.552 36.6773 52.0265 37.1603C51.4 37.7464 50.7038 37.9883 49.9381 38.2376C49.1723 38.4872 48.1965 38.4357 47.0109 38.4357H44.3239L43.5796 42.7328H40.4423L43.2415 28.1226H49.275C51.0901 28.1226 52.4141 28.6447 53.246 29.5973C54.0775 30.55 54.328 31.9255 53.9963 33.6323ZM48.086 30.2711H45.937L44.7652 36.2871H46.674C47.9382 36.2871 48.881 36.1625 49.4998 35.6855C50.1194 35.2094 50.5367 34.4703 50.7537 33.356C50.9617 32.2856 50.8671 31.4507 50.4701 31.0107C50.0726 30.5706 49.2781 30.2711 48.086 30.2711ZM23.5989 30.2711H21.4494L20.2776 36.2871H22.186C23.4506 36.2871 24.393 36.1625 25.0122 35.6855C25.6314 35.2094 26.0491 34.4703 26.2657 33.356C26.4736 32.2856 26.3791 31.4507 25.9821 31.0107C25.585 30.5706 24.7909 30.2711 23.5989 30.2711Z" fill="#6181B6"/>
</svg>
