<svg width="70" height="69" viewBox="0 0 70 69" fill="none" xmlns="http://www.w3.org/2000/svg">
<path d="M34.4523 8.40527C21.1301 8.40527 21.9619 14.2612 21.9619 14.2612L21.9767 20.3282H34.6899V22.1496H16.9272C16.9272 22.1496 8.40234 21.1697 8.40234 34.7947C8.40234 48.4201 15.8431 47.9369 15.8431 47.9369H20.2837V41.6141C20.2837 41.6141 20.0443 34.0721 27.6057 34.0721H40.2148C40.2148 34.0721 47.2991 34.1881 47.2991 27.1322V15.4657C47.2991 15.4657 48.375 8.40527 34.4523 8.40527ZM27.4423 12.4852C27.7427 12.4849 28.0402 12.5447 28.3178 12.6611C28.5954 12.7775 28.8477 12.9482 29.0601 13.1636C29.2725 13.3789 29.441 13.6345 29.5558 13.9159C29.6707 14.1973 29.7296 14.4989 29.7294 14.8034C29.7296 15.1079 29.6707 15.4095 29.5558 15.6909C29.441 15.9722 29.2725 16.2279 29.0601 16.4432C28.8477 16.6586 28.5954 16.8293 28.3178 16.9457C28.0402 17.0621 27.7427 17.1219 27.4423 17.1216C27.1419 17.1219 26.8443 17.0621 26.5667 16.9457C26.2891 16.8293 26.0369 16.6586 25.8245 16.4432C25.612 16.2279 25.4436 15.9722 25.3287 15.6909C25.2139 15.4095 25.1549 15.1079 25.1552 14.8034C25.1549 14.4989 25.2139 14.1973 25.3287 13.9159C25.4436 13.6345 25.612 13.3789 25.8245 13.1636C26.0369 12.9482 26.2891 12.7775 26.5667 12.6611C26.8443 12.5447 27.1419 12.4849 27.4423 12.4852Z" fill="url(#paint0_linear_630_657)"/>
<path d="M35.0607 60.9112C48.5944 60.9112 47.7493 55.1468 47.7493 55.1468L47.7343 49.1748H34.8191V47.3818H52.8637C52.8637 47.3818 61.5239 48.3465 61.5239 34.934C61.5239 21.5217 53.9651 21.9973 53.9651 21.9973H49.454V28.221C49.454 28.221 49.6972 35.6452 42.0158 35.6452H29.2065C29.2065 35.6452 22.0098 35.531 22.0098 42.4769V53.9613C22.0098 53.9613 20.917 60.9112 35.0605 60.9112H35.0607ZM42.182 56.8955C41.8768 56.8958 41.5745 56.8369 41.2925 56.7223C41.0105 56.6077 40.7543 56.4397 40.5385 56.2277C40.3227 56.0158 40.1516 55.7641 40.0349 55.4871C39.9182 55.2101 39.8583 54.9132 39.8586 54.6135C39.8583 54.3137 39.9182 54.0168 40.0348 53.7398C40.1515 53.4628 40.3226 53.2111 40.5384 52.9991C40.7542 52.7872 41.0105 52.6191 41.2925 52.5045C41.5745 52.3899 41.8768 52.331 42.182 52.3313C42.4872 52.331 42.7894 52.3899 43.0714 52.5044C43.3534 52.619 43.6097 52.7871 43.8255 52.9991C44.0413 53.211 44.2124 53.4627 44.3291 53.7397C44.4457 54.0167 44.5056 54.3135 44.5054 54.6133C44.5056 54.913 44.4457 55.2099 44.3291 55.4869C44.2124 55.7639 44.0413 56.0155 43.8255 56.2275C43.6097 56.4395 43.3534 56.6075 43.0714 56.7221C42.7894 56.8367 42.4872 56.8958 42.182 56.8955Z" fill="url(#paint1_linear_630_657)"/>
<defs>
<linearGradient id="paint0_linear_630_657" x1="512.715" y1="484.352" x2="3148.17" y2="3058.48" gradientUnits="userSpaceOnUse">
<stop stop-color="#387EB8"/>
<stop offset="1" stop-color="#366994"/>
</linearGradient>
<linearGradient id="paint1_linear_630_657" x1="778.191" y1="822.847" x2="3567.14" y2="3507.16" gradientUnits="userSpaceOnUse">
<stop stop-color="#FFE052"/>
<stop offset="1" stop-color="#FFC331"/>
</linearGradient>
</defs>
</svg>
