<svg width="70" height="69" viewBox="0 0 70 69" fill="none" xmlns="http://www.w3.org/2000/svg">
<path d="M35.3529 39.4331C38.0051 39.4331 40.1551 37.2831 40.1551 34.631C40.1551 31.9788 38.0051 29.8289 35.3529 29.8289C32.7008 29.8289 30.5508 31.9788 30.5508 34.631C30.5508 37.2831 32.7008 39.4331 35.3529 39.4331Z" fill="#61DAFB"/>
<path d="M53.5917 26.7111C52.665 26.3741 51.6961 26.0371 50.6852 25.7423C50.9379 24.7313 51.1485 23.7203 51.317 22.7515C52.2016 17.1911 51.2328 13.2736 48.5368 11.7571C47.7365 11.2937 46.8519 11.0831 45.8409 11.0831C42.8922 11.0831 39.1432 13.2736 35.352 16.9384C31.5609 13.2736 27.8118 11.0831 24.8632 11.0831C23.8522 11.0831 22.9676 11.2937 22.1672 11.7571C19.4713 13.3157 18.5024 17.2332 19.387 22.7515C19.5555 23.7203 19.7662 24.7313 20.0189 25.7423C19.0079 26.0371 18.0391 26.332 17.1124 26.7111C11.8469 28.7331 8.98242 31.5133 8.98242 34.6304C8.98242 37.7476 11.889 40.5278 17.1124 42.5498C18.0391 42.8867 19.0079 43.2237 20.0189 43.5186C19.7662 44.5296 19.5555 45.5406 19.387 46.5094C18.5024 52.0698 19.4713 55.9873 22.1672 57.5038C22.9676 57.9671 23.8522 58.1777 24.8632 58.1777C27.854 58.1777 31.603 55.9873 35.352 52.3225C39.1432 55.9873 42.8922 58.1777 45.8409 58.1777C46.8519 58.1777 47.7365 57.9671 48.5368 57.5038C51.2328 55.9452 52.2016 52.0276 51.317 46.5094C51.1485 45.5406 50.9379 44.5296 50.6852 43.5186C51.6961 43.2237 52.665 42.9289 53.5917 42.5498C58.8572 40.5278 61.7216 37.7476 61.7216 34.6304C61.7216 31.5133 58.8572 28.7331 53.5917 26.7111ZM47.3574 13.8633C49.0845 14.8743 49.6742 17.9915 48.9581 22.4145C48.8317 23.2991 48.6211 24.2258 48.3683 25.1947C46.1779 24.6892 43.8611 24.3522 41.4179 24.1416C39.9857 22.1196 38.5113 20.3083 37.037 18.6654C40.1542 15.5904 43.3135 13.4842 45.883 13.4842C46.4306 13.4842 46.9361 13.6106 47.3574 13.8633ZM42.6395 38.8428C41.8813 40.1908 40.9966 41.5388 40.0699 42.8867C38.5113 43.0131 36.9527 43.0552 35.352 43.0552C33.7092 43.0552 32.1506 43.0131 30.6341 42.8867C29.7074 41.5388 28.8649 40.1908 28.1067 38.8428C27.3064 37.4527 26.5481 36.0205 25.8741 34.6304C26.5481 33.2403 27.3064 31.8081 28.1067 30.418C28.8649 29.0701 29.7495 27.7221 30.6763 26.3741C32.2349 26.2478 33.7934 26.2056 35.3942 26.2056C37.037 26.2056 38.5956 26.2478 40.112 26.3741C41.0388 27.7221 41.8813 29.0701 42.6395 30.418C43.4398 31.8081 44.1981 33.2403 44.8721 34.6304C44.1559 36.0205 43.4398 37.4106 42.6395 38.8428ZM46.1358 37.4527C46.7676 38.9271 47.2731 40.3593 47.7365 41.7915C46.3043 42.1285 44.7878 42.3813 43.1871 42.5919C43.6926 41.7915 44.2402 40.949 44.7036 40.0644C45.209 39.1798 45.6724 38.2952 46.1358 37.4527ZM35.352 48.8684C34.3411 47.7731 33.3722 46.5937 32.4455 45.3721C33.4143 45.4142 34.3832 45.4563 35.352 45.4563C36.3209 45.4563 37.2897 45.4142 38.2586 45.3721C37.3319 46.5937 36.363 47.7731 35.352 48.8684ZM27.517 42.5498C25.9163 42.3391 24.3998 42.0864 22.9676 41.7494C23.4309 40.3593 23.9364 38.885 24.5683 37.4106C25.0317 38.2531 25.495 39.1377 26.0005 39.9802C26.506 40.9069 27.0115 41.7073 27.517 42.5498ZM24.5683 31.8081C23.9364 30.3338 23.4309 28.9016 22.9676 27.4694C24.3998 27.1324 25.9163 26.8796 27.517 26.669C27.0115 27.4694 26.4639 28.3118 26.0005 29.1964C25.495 30.081 25.0317 30.9657 24.5683 31.8081ZM35.352 20.3925C36.363 21.4878 37.3319 22.6672 38.2586 23.8888C37.2897 23.8467 36.3209 23.8046 35.352 23.8046C34.3832 23.8046 33.4143 23.8467 32.4455 23.8888C33.3722 22.6672 34.3411 21.4878 35.352 20.3925ZM44.7036 29.2386L43.1871 26.7111C44.7878 26.9217 46.3043 27.1745 47.7365 27.5115C47.2731 28.9016 46.7676 30.3759 46.1358 31.8503C45.6724 30.9657 45.209 30.081 44.7036 29.2386ZM21.746 22.4145C21.0299 17.9915 21.6196 14.8743 23.3467 13.8633C23.7679 13.6106 24.2734 13.4842 24.821 13.4842C27.3485 13.4842 30.5078 15.5483 33.6671 18.6654C32.1927 20.2662 30.7184 22.1196 29.2862 24.1416C26.843 24.3522 24.5262 24.7313 22.3357 25.1947C22.083 24.2258 21.9145 23.2991 21.746 22.4145ZM11.3414 34.6304C11.3414 32.6506 13.7424 30.5444 17.9548 28.9858C18.7973 28.6488 19.724 28.354 20.6508 28.1012C21.3247 30.2074 22.1672 32.44 23.1782 34.6726C22.1672 36.9051 21.2826 39.0956 20.6508 41.2018C14.8377 39.5168 11.3414 36.9894 11.3414 34.6304ZM23.3467 55.3976C21.6196 54.3866 21.0299 51.2694 21.746 46.8464C21.8724 45.9618 22.083 45.0351 22.3357 44.0662C24.5262 44.5717 26.843 44.9087 29.2862 45.1193C30.7184 47.1413 32.1927 48.9526 33.6671 50.5954C30.5499 53.6705 27.3906 55.7767 24.821 55.7767C24.2734 55.7767 23.7679 55.6503 23.3467 55.3976ZM48.9581 46.8464C49.6742 51.2694 49.0845 54.3866 47.3574 55.3976C46.9361 55.6503 46.4306 55.7767 45.883 55.7767C43.3556 55.7767 40.1963 53.7126 37.037 50.5954C38.5113 48.9947 39.9857 47.1413 41.4179 45.1193C43.8611 44.9087 46.1779 44.5296 48.3683 44.0662C48.6211 45.0351 48.7896 45.9618 48.9581 46.8464ZM52.7492 40.2751C51.9068 40.612 50.98 40.9069 50.0533 41.1597C49.3793 39.0535 48.5368 36.8209 47.5259 34.5883C48.5368 32.3557 49.4214 30.1653 50.0533 28.0591C55.8664 29.7441 59.3627 32.2715 59.3627 34.6304C59.3627 36.6103 56.9195 38.7165 52.7492 40.2751Z" fill="#61DAFB"/>
</svg>
