<svg width="33" height="33" viewBox="0 0 33 33" fill="none" xmlns="http://www.w3.org/2000/svg">
<rect x="0.584961" y="0.97998" width="32" height="32" rx="16" fill="white"/>
<g clip-path="url(#clip0_3446_651)">
<path d="M24.5537 21.0737L23.835 24.23C23.6891 24.7091 23.3662 24.9591 22.8662 24.98C20.2204 24.9591 17.8245 24.3029 15.6787 23.0112C13.5329 21.7404 11.8245 20.0321 10.5537 17.8862C9.26204 15.7404 8.60579 13.3446 8.58496 10.6987C8.60579 10.1987 8.85579 9.87581 9.33496 9.72998L12.4912 9.01123C12.9912 8.9279 13.3662 9.1154 13.6162 9.57373L15.0537 12.9487C15.2204 13.4071 15.1266 13.7925 14.7725 14.105L13.1162 15.4487C13.637 16.5321 14.3245 17.5008 15.1787 18.355C16.0329 19.2091 17.0016 19.9071 18.085 20.4487L19.46 18.7612C19.7725 18.4071 20.1579 18.3133 20.6162 18.48L23.9912 19.9175C24.4287 20.1883 24.6162 20.5737 24.5537 21.0737Z" fill="#0D6EFD"/>
</g>
<defs>
<clipPath id="clip0_3446_651">
<rect width="16" height="16" fill="white" transform="matrix(1 0 0 -1 8.58496 24.98)"/>
</clipPath>
</defs>
</svg>
